<?xml version="1.0" standalone="no"?>
<!DOCTYPE svg PUBLIC "-//W3C//DTD SVG 1.1//EN" "http://www.w3.org/Graphics/SVG/1.1/DTD/svg11.dtd" >
<svg xmlns="http://www.w3.org/2000/svg">
<metadata>
Created by FontForge 20120731 at Mon Nov 14 16:33:04 2016
 By admin
</metadata>
<defs>
<font id="iconfont" horiz-adv-x="1024" >
  <font-face 
    font-family="iconfont"
    font-weight="500"
    font-stretch="normal"
    units-per-em="1024"
    panose-1="2 0 6 3 0 0 0 0 0 0"
    ascent="896"
    descent="-128"
    x-height="792"
    bbox="-10 -128 2113 930"
    underline-thickness="0"
    underline-position="0"
    unicode-range="U+0078-E6F8"
  />
<missing-glyph 
 />
    <glyph glyph-name=".notdef" 
 />
    <glyph glyph-name=".notdef" 
 />
    <glyph glyph-name=".null" horiz-adv-x="0" 
 />
    <glyph glyph-name="nonmarkingreturn" horiz-adv-x="341" 
 />
    <glyph glyph-name="x" unicode="x" horiz-adv-x="1001" 
d="M281 543q-27 -1 -53 -1h-83q-18 0 -36.5 -6t-32.5 -18.5t-23 -32t-9 -45.5v-76h912v41q0 16 -0.5 30t-0.5 18q0 13 -5 29t-17 29.5t-31.5 22.5t-49.5 9h-133v-97h-438v97zM955 310v-52q0 -23 0.5 -52t0.5 -58t-10.5 -47.5t-26 -30t-33 -16t-31.5 -4.5q-14 -1 -29.5 -0.5
t-29.5 0.5h-32l-45 128h-439l-44 -128h-29h-34q-20 0 -45 1q-25 0 -41 9.5t-25.5 23t-13.5 29.5t-4 30v167h911zM163 247q-12 0 -21 -8.5t-9 -21.5t9 -21.5t21 -8.5q13 0 22 8.5t9 21.5t-9 21.5t-22 8.5zM316 123q-8 -26 -14 -48q-5 -19 -10.5 -37t-7.5 -25t-3 -15t1 -14.5
t9.5 -10.5t21.5 -4h37h67h81h80h64h36q23 0 34 12t2 38q-5 13 -9.5 30.5t-9.5 34.5q-5 19 -11 39h-368zM336 498v228q0 11 2.5 23t10 21.5t20.5 15.5t34 6h188q31 0 51.5 -14.5t20.5 -52.5v-227h-327z" />
    <glyph glyph-name="cogs" unicode="&#xe618;" 
d="M482 384q0 61 -40.5 103.5t-97.5 42.5t-97.5 -42.5t-40.5 -103.5t40.5 -103.5t97.5 -42.5t97.5 42.5t40.5 103.5zM895 91q0 30 -20.5 52t-48.5 22t-48.5 -22t-20.5 -52t20.5 -51.5t49 -21.5t48.5 21.5t20 51.5zM895 677q0 29 -20.5 51t-48.5 22t-48.5 -22t-20.5 -51
q0 -31 20.5 -52.5t49 -21.5t48.5 21.5t20 52.5zM688 436v-106q0 -5 -3.5 -10.5t-8.5 -6.5l-83 -14q-6 -20 -18 -43q19 -28 49 -66q4 -5 4 -11q0 -7 -4 -11q-12 -17 -44.5 -51t-42.5 -34q-6 0 -11 4l-62 51q-20 -11 -41 -17q-6 -62 -13 -89q-4 -14 -16 -14h-100q-6 0 -11 4.5
t-5 10.5l-12 87q-19 6 -41 18l-63 -51q-4 -4 -11 -4q-6 0 -11 4q-78 76 -78 92q0 5 4 11q5 8 22 30t25 35q-12 25 -19 47l-81 13q-6 1 -9.5 6t-3.5 11v106q0 5 3.5 10.5t8.5 6.5l84 13q5 21 17 44q-19 27 -49 66q-3 6 -3 11q0 7 3 12q12 17 44.5 50.5t42.5 33.5q6 0 11 -4
l62 -51q18 10 42 18q5 62 12 88q4 14 16 14h100q6 0 11 -4.5t5 -10.5l13 -87q18 -6 40 -18l63 51q5 4 11 4t12 -4q77 -76 77 -92q0 -5 -4 -11q-6 -9 -22.5 -30.5t-24.5 -34.5q13 -27 19 -47l81 -13q6 -1 9.5 -6t3.5 -11v0zM1033 131v-80q0 -9 -80 -17q-7 -16 -17 -30
q28 -65 28 -79q0 -2 -2 -4q-66 -40 -67 -40q-4 0 -24.5 26.5t-28.5 38.5q-11 -1 -16 -1t-16 1q-8 -12 -28 -38.5t-25 -26.5q-1 0 -66 40q-3 2 -3 4q0 14 28 79q-10 14 -16 30q-80 8 -80 17v80q0 10 80 18q7 17 16 30q-28 64 -28 79q0 2 3 4q2 1 18.5 11.5t31.5 19.5t16 9
q5 0 25.5 -26.5t27.5 -38.5q11 1 16 1t16 -1q28 40 50 64l3 1q2 0 67 -40q2 -2 2 -4q0 -14 -28 -79q10 -13 17 -30q80 -8 80 -17v-1zM1033 717v-80q0 -10 -80 -18q-7 -16 -17 -30q28 -64 28 -79q0 -2 -2 -4q-66 -40 -67 -40q-4 0 -24.5 26.5t-28.5 38.5q-11 -1 -16 -1t-16 1
q-8 -12 -28 -38.5t-25 -26.5q-1 0 -66 40q-3 2 -3 4q0 15 28 79q-10 14 -16 30q-80 8 -80 18v80q0 9 80 17q7 17 16 30q-28 65 -28 79q0 2 3 4q2 1 18.5 11.5t31.5 19.5t16 9q5 0 25.5 -26.5t27.5 -38.5q11 1 16 1t16 -1q28 40 50 64l3 1q2 0 67 -40q2 -2 2 -4
q0 -14 -28 -79q10 -13 17 -30q80 -8 80 -17v0z" />
    <glyph glyph-name="down" unicode="&#xe619;" 
d="M205 392l307 -307l307 307h-614z" />
    <glyph glyph-name="up" unicode="&#xe61a;" 
d="M205 376l307 307l307 -307h-614z" />
    <glyph glyph-name="iconcircle" unicode="&#xe60e;" 
d="M512.5 795q111.5 0 206 -55t149.5 -150t55 -206.5t-55 -206t-149.5 -149.5t-206 -55t-206.5 55t-150 149.5t-55 206t55 206.5t150 150t206.5 55z" />
    <glyph glyph-name="eye" unicode="&#xe61b;" 
d="M512 64q-78 0 -149 17.5t-121 46t-92.5 62.5t-69.5 68t-45.5 62.5t-26.5 45.5l-8 18q3 7 8.5 18.5t26 44.5t46 63.5t69 67t93 63.5t120.5 45t149 18t149 -17.5t121 -46t92.5 -62.5t69.5 -68t45.5 -62.5t26.5 -45.5l8 -18q-3 -7 -8.5 -18.5t-26 -44.5t-46 -63.5t-69 -67
t-93 -63.5t-120.5 -45t-149 -18zM512 576q-80 0 -136 -56t-56 -136t56 -136t136 -56t136 56t56 136t-56 136t-136 56zM512 256q-53 0 -90.5 37.5t-37.5 90.5h128l-90 90q37 38 90 38t90.5 -37.5t37.5 -90.5t-37.5 -90.5t-90.5 -37.5z" />
    <glyph glyph-name="refresh" unicode="&#xe61c;" 
d="M1016.5 339q8.5 -20 4 -42t-20.5 -37l-145 -146q-22 -21 -52 -21t-51 21l-146 146q-15 15 -19.5 37t4 42t27 32.5t40.5 12.5h72q0 121 -85 206t-205.5 85t-206 -85t-85.5 -206t85.5 -206t205.5 -85q55 0 107 21l110 -109q-101 -58 -217 -58q-89 0 -170 34.5t-139.5 93
t-93 139.5t-34.5 170t34.5 170t93 139.5t139.5 93t170 34.5t170 -34.5t139.5 -93t93 -139.5t34.5 -170h73q22 0 40.5 -12.5t27 -32.5z" />
    <glyph glyph-name="download" unicode="&#xe650;" 
d="M880 262q0 20 -13.5 33t-32.5 13h-46q-19 0 -32.5 -13t-13.5 -33v-91h-459v91q0 20 -13.5 33t-32.5 13h-46q-19 0 -32.5 -13t-13.5 -33v-137v-46q0 -19 13.5 -32.5t32.5 -13.5h46h596q19 0 32.5 13.5t13.5 32.5v8l1 1v174zM492 271l-201 201q-14 13 -6.5 31t26.5 18h86
v175q0 29 21 50t51 21h86q29 0 50.5 -21t21.5 -50v-175h86q18 0 25.5 -18t-5.5 -31l-201 -201q-8 -9 -20 -9t-20 9v0z" />
    <glyph glyph-name="stop" unicode="&#xe644;" 
d="M868 837h-712q-40 0 -68.5 -28.5t-28.5 -68.5v-712q0 -40 28.5 -68.5t68.5 -28.5h712q40 0 68.5 28.5t28.5 68.5v712q0 40 -28.5 68.5t-68.5 28.5z" />
    <glyph glyph-name="sale" unicode="&#xe699;" 
d="M896 -96h-768q-40 0 -68 28t-28 68v448q0 40 28 68t68 28h64l272 209q-2 8 -2 15q0 26 18.5 45t45 19t45.5 -19t19 -45q0 -16 -9 -31l251 -193h64q40 0 68 -28t28 -68v-448q0 -40 -28 -68t-68 -28zM546 109h129v25h-101v182h-28v-207v0zM362 109l22 63h87l24 -63h31
l-84 207h-30l-79 -207h29zM171 291.5q-9 -13.5 -9 -29.5q0 -14 7.5 -25.5t21.5 -19.5q12 -6 40 -12.5t37 -10.5q13 -5 18.5 -12t5.5 -16.5t-6 -18t-18 -13t-27 -4.5q-18 0 -32 6t-20.5 16t-8.5 26l-26 -2q1 -21 11.5 -37.5t29.5 -24.5t47 -8q22 0 39.5 8t27 22.5t9.5 31
t-8.5 29t-26.5 21.5q-13 5 -46 12.5t-41 15t-8 18.5q0 13 11.5 22t36.5 9q23 0 35.5 -10t14.5 -29l26 2q-1 18 -10.5 32t-26.5 21.5t-40 7.5q-21 0 -38 -7t-26 -20.5zM566 718q-18 -14 -40 -14q-32 0 -52 26l-250 -186h576zM862 134h-127v70h114v24h-114v63h122v25h-149
v-207h154v25v0zM426 294q5 -17 15 -43l21 -57h-70l23 60q7 20 11 40z" />
    <glyph glyph-name="clock" unicode="&#xe61d;" 
d="M64 384q0 122 60 225t163 163t225 60t225 -60t163 -163t60 -225t-60 -225t-163 -163t-225 -60t-225 60t-163 163t-60 225zM727 241q13 19 8 42t-24 36l-143 95v250q0 23 -16.5 39.5t-39.5 16.5t-39.5 -16.5t-16.5 -39.5v-280q0 -30 25 -47l168 -112q14 -9 31 -9
q30 0 47 25z" />
    <glyph glyph-name="back" unicode="&#xe612;" 
d="M672 -16q-20 0 -34 14l-352 352q-14 14 -14 34t14 34l352 352q14 14 34 14t34 -14t14 -34t-14 -34l-318 -318l318 -318q14 -14 14 -34t-14 -34t-34 -14z" />
    <glyph glyph-name="arrowcircleleft" unicode="&#xe658;" 
d="M654 604l-220 -220l220 -220l-43 -42l-262 262l262 262zM1024 384q0 -104 -40.5 -199t-109 -163.5t-163.5 -109t-199 -40.5t-199 40.5t-163.5 109t-109 163.5t-40.5 199t40.5 199t109 163.5t163.5 109t199 40.5t199 -40.5t163.5 -109t109 -163.5t40.5 -199zM964 384
q0 92 -36 175.5t-96.5 144t-144 96.5t-175.5 36t-175.5 -36t-144 -96.5t-96.5 -144t-36 -175.5t36 -175.5t96.5 -144t144 -96.5t175.5 -36t175.5 36t144 96.5t96.5 144t36 175.5z" />
    <glyph glyph-name="arrowcircleright" unicode="&#xe659;" 
d="M413 646l262 -262l-262 -262l-43 42l220 220l-220 220zM1024 384q0 -104 -40.5 -199t-109 -163.5t-163.5 -109t-199 -40.5t-199 40.5t-163.5 109t-109 163.5t-40.5 199t40.5 199t109 163.5t163.5 109t199 40.5t199 -40.5t163.5 -109t109 -163.5t40.5 -199zM964 384
q0 92 -36 175.5t-96.5 144t-144 96.5t-175.5 36t-175.5 -36t-144 -96.5t-96.5 -144t-36 -175.5t36 -175.5t96.5 -144t144 -96.5t175.5 -36t175.5 36t144 96.5t96.5 144t36 175.5z" />
    <glyph glyph-name="data" unicode="&#xe6d0;" 
d="M924 616q-40 0 -68 -28t-28 -67q0 -47 38 -76l-119 -238q-19 8 -39 8q-10 0 -21 -2l-168 394q20 26 20 59q0 40 -28 68t-67.5 28t-67.5 -28t-28 -68q0 -26 13 -48l-231 -262q-16 5 -30 5q-40 0 -68 -28t-28 -67.5t28 -67.5t68 -28t68 28t28 68q0 32 -21 58l226 257
q20 -10 43 -10q15 0 29 4l166 -389q-26 -28 -26 -66q0 -40 28 -68t67.5 -28t67.5 28t28 68q0 26 -14 49l127 257q1 0 3.5 -0.5t3.5 -0.5q40 0 68 28t28 67.5t-28 67.5t-68 28zM100 225q-17 0 -29 12t-12 28.5t12 29t29 12.5t29 -12.5t12 -29t-12 -28.5t-29 -12zM403 666
q0 17 12 29t29 12t29 -12t12 -29t-12 -29t-29 -12t-29 12t-12 29zM708 79q-17 0 -29 12t-12 29t12 29t29 12t29 -12t12 -29t-12 -29t-29 -12zM924 480q-17 0 -29 12t-12 29t12 29t29 12t29 -12t12 -29t-12 -29t-29 -12z" />
    <glyph glyph-name="laba" unicode="&#xe655;" 
d="M46 535q0 25 18.5 42.5t44.5 17.5h63v-273h-63q-26 0 -44.5 17.5t-18.5 43.5v152v0zM387 191q5 -12 12 -26q6 -12 16 -28.5t24 -36.5q17 -23 34.5 -48.5t26.5 -46.5t5.5 -34.5t-28.5 -13.5h-57q-20 0 -37 7t-32.5 22t-32 38.5t-35.5 55.5q-23 37 -32 64.5t-12 45.5
q-4 22 0 37q8 -1 19 -4l22 -4q13 -3 30 -6q17 -4 30.5 -7.5t24.5 -7.5q12 -4 22 -8v1zM387 191zM985 544q-6 57 -18 109t-31 94t-46 64t-62 18t-78 -44v0q-43 -38 -96 -63t-109 -41t-109 -25t-96 -17t-70.5 -16.5t-31.5 -22.5v-304q4 -9 37.5 -16t83.5 -14q50 -8 110.5 -17
t119 -24t108 -37t78.5 -55q30 -33 57.5 -37.5t51.5 11.5t43.5 50.5t34 79.5t22 96.5t7.5 102.5t-6 108zM855 164q-31 0 -53 87t-22 210t22 210t53 87q32 0 60 -89t28 -208t-28 -208t-60 -89z" />
    <glyph glyph-name="qiehuan" unicode="&#xe66e;" 
d="M648 547v145l256 -232l-256 -215v122h-239v180h239zM349 417v-109h240v-179h-240v-112l-227 204zM921 593z" />
    <glyph glyph-name="rizhi" unicode="&#xe668;" 
d="M408 611h207q22 0 37 16.5t15 39.5v113h-104v56h-103v-56h-104v-113q0 -23 15 -39.5t37 -16.5v0zM460 723h103v-56h-103v56v0zM304 105h415v506h-52q0 -23 -15 -39.5t-37 -16.5h-207q-22 0 -37 16.5t-15 39.5h-52v-506v0zM356 499h311v-57h-311v57v0zM356 386h207v-56
h-207v56v0zM356 274h259v-57h-259v57v0zM823 780h-104v-113h52v-618h-519v618h52v113h-104q-22 0 -37 -16.5t-15 -40.5v-730q0 -24 15 -40.5t37 -16.5h623q21 0 36.5 16.5t15.5 40.5v730q0 24 -15.5 40.5t-36.5 16.5v0zM823 780z" />
    <glyph glyph-name="alerts" unicode="&#xe671;" 
d="M166 115l90 141v410l256 153l256 -153v-410l90 -141h-692zM512 -51l-141 115h282z" />
    <glyph glyph-name="keytransactions" unicode="&#xe602;" 
d="M673 761l351 -353l-117 -27l-261 263zM0 440l345 347l29 -118l-257 -258zM237 290l172 165h174v0l-175 181l-257 -259zM612 609l-62 -65v0l90 -89l-39 -39h-179l-192 -191l13 -34l34 -13l90 91h25v0v-25l-103 -104l13 -33l34 -14l103 104h24v0l1 -25l-91 -91l13 -34
l34 -13l90 91h25v0v-25l-71 -72l12 -34l34 -13l363 365zM403 459z" />
    <glyph glyph-name="pc" unicode="&#xe603;" 
d="M77 800v-666h870v666h-870zM870 300h-716v397h716v-397zM394 83l-87 -116h384l-86 116h-211z" />
    <glyph glyph-name="phone" unicode="&#xe604;" 
d="M205 825v-882h614v882h-614zM512 7q-27 0 -45.5 18.5t-18.5 45t18.5 45.5t45.5 19t45.5 -19t18.5 -45.5t-18.5 -45t-45.5 -18.5zM742 211h-460v500h460v-500z" />
    <glyph glyph-name="settings" unicode="&#xe605;" 
d="M817 620l52 21l47 63l-62 63l-64 -47l-21 -53l-157 -156l52 -45zM371 317l-256 -243l113 -119l246 246zM539 489v200l-143 124h-146l111 -109l24 -96l-90 -91l-97 24l-122 112l1 -147l136 -142h199l356 -409h179l1 180zM883 19h-77v77h77v-77z" />
    <glyph glyph-name="user" unicode="&#xe601;" 
d="M448 806l-13 -51l-77 -13l-28 -231l94 -202l-309 -191v-156h794v156l-311 178l95 214l-38 223z" />
    <glyph glyph-name="arrow_right" unicode="&#xe613;" 
d="M704 384l-323 339l-61 -63l263 -276l-263 -276l61 -63l262 275z" />
    <glyph glyph-name="arrowup" unicode="&#xe610;" 
d="M512 192l339 323l-63 61l-276 -263l-276 263l-63 -61l275 -262z" />
    <glyph glyph-name="kownledge" unicode="&#xe64d;" 
d="M60 323h60l15 -168h-90l15 168v0zM75 491h30v-259h-30v259zM512 780l497 -282l-497 -282l-497 282zM512 155l-272 155l-29 -124l301 -198l301 198l-29 124z" />
    <glyph glyph-name="submit" unicode="&#xe64e;" 
d="M398 347q-29 -17 -48 -28q-9 -5 -10 -13.5t3 -14.5l3 -6l49 -84q-22 1 -45 8q-38 27 -59 58t-24 58t-1 50t5.5 42.5t0.5 27.5q-4 14 -25 18q-50 9 -70 8q-18 0 -24 -21q-12 -43 -12 -88.5t6.5 -77t18.5 -62t17.5 -40t8.5 -14.5v0q15 -26 60 -73.5t81.5 -82.5t37.5 -35
v-74h204v193q-135 232 -140 240q-14 25 -37 11zM264 865v-367q19 -6 31 -19q10 -10 13 -21q7 -18 0 -57q-9 -49 -2 -76q8 17 25 27q7 4 18 10.5t19.5 11.5t9.5 5q16 10 35 10q36 0 55 -34q120 -209 140 -240l3 -6h273v756h-620zM790 440h-264v50h264v-50zM790 576h-432v49
h432v-49zM790 711h-432v50h432v-50z" />
    <glyph glyph-name="cog" unicode="&#xe61e;" 
d="M601 35l-46 -129q-21 -2 -43 -2t-43 2l-46 129q-50 13 -94 39l-124 -59q-34 28 -62 62l59 124q-26 44 -39 94l-129 46q-2 21 -2 43t2 43l129 46q13 50 39 94l-59 124q28 34 62 62l124 -59q44 26 94 39l46 129q21 2 43 2t43 -2l46 -129q50 -13 94 -39l124 59
q34 -28 62 -62l-59 -124q26 -44 39 -94l129 -46q2 -21 2 -43t-2 -43l-129 -46q-13 -50 -39 -94l59 -124q-28 -34 -62 -62l-124 59q-44 -26 -94 -39v0v0zM512 204q75 0 127.5 52.5t52.5 127.5t-52.5 127.5t-127.5 52.5t-127.5 -52.5t-52.5 -127.5t52.5 -127.5t127.5 -52.5v0z
" />
    <glyph glyph-name="pinglun" unicode="&#xe669;" 
d="M896 768h-448q-26 0 -45 -19t-19 -45v-320q0 -26 19 -45t45 -19h256l128 -128v128h64q26 0 45 19t19 45v320q0 26 -19 45t-45 19zM320 384v128h-192q-26 0 -45 -19t-19 -45v-320q0 -26 19 -45t45 -19h64v-128l128 128h256q26 0 45 19t19 45v128h-192q-53 0 -90.5 37.5
t-37.5 90.5z" />
    <glyph glyph-name="envelope" unicode="&#xe624;" 
d="M872 519q-187 -130 -234 -162q-5 -4 -21 -16t-26.5 -19t-26 -16t-29 -13.5t-24.5 -4.5h-1q-12 0 -25.5 4.5t-28.5 13.5t-25.5 16t-27 19t-21.5 16q-45 31 -130.5 90.5t-102.5 71.5q-30 21 -57.5 58t-27.5 68q0 39 20.5 65t58.5 26h734q33 0 56.5 -23.5t23.5 -56.5
q0 -39 -24.5 -75.5t-60.5 -61.5v0zM957 112q0 -33 -23.5 -56.5t-56.5 -23.5h-734q-32 0 -55.5 23.5t-23.5 56.5v397q22 -24 50 -44q180 -122 248 -172q28 -21 46 -33t47.5 -24t54.5 -12h1q25 0 54.5 12t47 24t46.5 33q85 62 248 172q28 20 50 44v-397v0z" />
    <glyph glyph-name="signal" unicode="&#xe625;" 
d="M39 857v0v0zM176 91v-102q0 -7 -5 -12t-12 -5h-103q-7 0 -12 5t-5 12v102q0 8 5 12.5t12 4.5h103q7 0 12 -4.5t5 -12.5zM380 159v-170q0 -7 -5 -12t-12 -5h-102q-8 0 -12.5 5t-4.5 12v170q0 8 4.5 12.5t12.5 4.5h102q7 0 12 -4.5t5 -12.5zM584 295v-306q0 -7 -5 -12
t-12 -5h-102q-8 0 -12.5 5t-4.5 12v306q0 8 4.5 12.5t12.5 4.5h102q7 0 12 -4.5t5 -12.5zM788 499v-510q0 -7 -5 -12t-12 -5h-102q-8 0 -12.5 5t-4.5 12v510q0 8 4.5 12.5t12.5 4.5h102q7 0 12 -4.5t5 -12.5zM992 772v-783q0 -7 -5 -12t-12 -5h-102q-7 0 -12 5t-5 12v783
q0 7 5 12t12 5h102q7 0 12 -5t5 -12z" />
    <glyph glyph-name="remove-sign" unicode="&#xe654;" 
d="M8 888v0v0zM659 252q0 15 -10 25l-103 103l103 103q10 10 10 25t-10 26l-51 51q-11 11 -26 11t-26 -11l-103 -102l-102 102q-11 11 -26 11t-26 -11l-51 -51q-11 -11 -11 -26t11 -25l103 -103l-103 -103q-11 -10 -11 -25t11 -26l51 -51q11 -11 26 -11t26 11l102 102
l103 -102q11 -11 26 -11t26 11l51 51q10 11 10 26zM879 380.5q0 -118.5 -58.5 -219t-158.5 -158.5t-218.5 -58t-218.5 58t-158.5 158.5t-58.5 219t58.5 218.5t158.5 158.5t218.5 58t218.5 -58.5t158.5 -158t58.5 -218.5z" />
    <glyph glyph-name="ios" unicode="&#xe66b;" 
d="M665.5 734q15.5 18 26.5 41t15.5 43t6.5 37.5t2 27.5v10q-4 0 -10.5 -1t-26 -6t-37 -12t-39 -21.5t-37.5 -32.5q-24 -28 -36.5 -68t-13.5 -66v-26q4 1 10.5 2t26 6t37 12t39 21.5t37 32.5zM786 362q0 60 30 110.5t81 78.5q-33 47 -86 75t-98 28q-39 0 -109.5 -24
t-79.5 -24q-11 0 -36.5 11t-62 22t-71.5 12q-27 0 -57 -8t-61.5 -24.5t-58 -48t-40.5 -71.5q-20 -60 -24.5 -129.5t12.5 -150.5t56 -155q93 -173 180 -173q29 0 89 21.5t86 21.5t77.5 -21.5t78.5 -21.5q40 0 80 29t71 77q12 17 24 40t21.5 42.5t17 37t12.5 27.5l4 11v6
q-60 24 -98 78.5t-38 122.5z" />
    <glyph glyph-name="camera" unicode="&#xe691;" 
d="M891 0h-758q-28 0 -48 19.5t-20 47.5v500q0 28 20 48t48 20h128q20 2 34 12t19 18l4 9l5 -1q34 66 119 66h138q43 0 75.5 -17t46.5 -50l6 -11h2q8 -16 32 -26h149q29 0 48.5 -20t19.5 -48v-500q0 -28 -19.5 -47.5t-48.5 -19.5zM512 505q-83 0 -142 -58.5t-59 -142
t59 -142.5t142 -59t142 59t59 142.5t-59 142t-142 58.5zM804 557q-16 0 -27.5 -11.5t-11.5 -27.5t11.5 -27.5t27.5 -11.5t27.5 11.5t11.5 27.5t-11.5 27.5t-27.5 11.5zM512.5 168q-56.5 0 -96.5 40t-40 96.5t40 96.5t96.5 40t96 -40t39.5 -96.5t-39.5 -96.5t-96 -40z" />
    <glyph glyph-name="crown" unicode="&#xe665;" 
d="M175 128l-90 427l256 -214l171 427l171 -427l256 214l-90 -427h-674zM512 768zM427 768q0 35 25 60t60 25t60 -25t25 -60t-25 -60t-60 -25t-60 25t-25 60zM939 555zM853 554.5q0 35.5 25 60.5t60.5 25t60.5 -25t25 -60.5t-25 -60.5t-60.5 -25t-60.5 25t-25 60.5zM85 555z
M0 555q0 35 25 60t60.5 25t60.5 -25t25 -60.5t-25 -60.5t-60.5 -25t-60.5 25t-25 61v0zM171 85h682v-128h-682v128z" />
    <glyph glyph-name="applications" unicode="&#xe606;" 
d="M416 -19v524h474v-524h-474v0zM348 122h-73v524h474v-73h-401v-451v0zM207 263h-73v524h474v-73h-401v-451v0z" />
    <glyph glyph-name="exclamationsign" unicode="&#xe635;" 
d="M44 930v0v0zM508.5 853q126.5 0 233 -62.5t169 -169t62.5 -233t-62.5 -233.5t-169 -169t-233 -62t-233 62t-169 169t-62.5 233.5t62.5 233t169 169t233 62.5zM586 99v115q0 8 -5.5 13.5t-13.5 5.5h-116q-8 0 -14 -6t-6 -13v-115q0 -8 6 -14t14 -6h116q8 0 13.5 5.5
t5.5 14.5zM585 307l11 375q0 8 -6 11q-6 5 -15 5h-133q-8 0 -15 -5q-6 -3 -6 -11l11 -375q0 -6 6 -10.5t14 -4.5h112q9 0 14.5 4.5t6.5 10.5z" />
    <glyph glyph-name="sina" unicode="&#xe649;" 
d="M754 406q-9 2 -12 4t-6 7t2 13q24 62 0 96q-24 33 -82 33t-133 -32v0q-25 -10 -24 6q1 2 1 5q25 78 -10 113q-40 40 -132.5 4t-183.5 -127q-69 -69 -106.5 -139t-37.5 -132q0 -76 60 -136t151 -90t193 -30q94 0 178 25.5t139 65.5t87 88t32 94q0 50 -34 83.5t-82 48.5z
M450 42q-76 -7 -155 22t-129.5 79t-55.5 102q-5 51 33 96.5t105.5 73.5t147.5 33q91 5 172 -19t130.5 -68t54.5 -96q5 -50 -37.5 -99.5t-114 -82.5t-151.5 -41zM927.5 697q-46.5 52 -111.5 72.5t-131 6.5v0q-15 -4 -23.5 -16.5t-5 -27.5t16 -23.5t27.5 -5.5q47 10 93.5 -4.5
t79.5 -51t43 -85t-5 -92.5v0q-5 -14 2 -27.5t21.5 -18.5t28 2t18.5 22v0q21 62 7 129.5t-60.5 119.5zM830.5 609.5q-22.5 25.5 -54.5 35t-64 3.5q-13 -3 -20 -14t-4 -24t14 -20t24 -4v0q34 7 57.5 -19t12.5 -60v0q-4 -12 2 -23.5t18.5 -16t24 1.5t15.5 19q11 30 4 63
t-29.5 58.5zM451 357q-57 14 -113.5 -10.5t-81.5 -74.5q-25 -51 -3 -100.5t79 -68.5q59 -19 120 6.5t85 80.5q24 54 -1.5 102.5t-84.5 64.5zM393 183q-12 -19 -33.5 -26t-39.5 2q-19 8 -23.5 26.5t7 36.5t32.5 25t39 -1q19 -8 24 -26.5t-6 -36.5zM443.5 248
q-4.5 -7 -12.5 -10t-15 0t-9 10t2 14t12 9.5t15 0t9.5 -9.5t-2 -14z" />
    <glyph glyph-name="search" unicode="&#xe66d;" 
d="M915 85l-228 229q55 89 43 197t-89 185q-92 91 -221 91t-220 -91t-91 -220.5t91 -220.5q77 -77 185 -89t197 43l229 -228zM264.5 319.5q-64.5 64.5 -64.5 156t64.5 156t156 64.5t156 -64.5t64.5 -156t-64.5 -156t-156 -64.5t-156 64.5z" />
    <glyph glyph-name="trash" unicode="&#xe61f;" 
d="M710 531h-17v-428h-56v428h-94v-428h-56v428h-94v-428h-56v428h-36h-77v-448q0 -30 22.5 -52t54.5 -22h409q32 0 54.5 22t22.5 52v448q0 1 -9 1t-30.5 -0.5t-37.5 -0.5zM824 665h-168v46q0 19 -26 33.5t-49 14.5h-150q-24 0 -49.5 -14.5t-25.5 -33.5v-46h-169
q-15 0 -26.5 -11t-11.5 -26.5t11.5 -26.5t26.5 -11h637q16 0 27 11t11 26.5t-11 26.5t-27 11zM581 665h-150v19h150v-19z" />
    <glyph glyph-name="nengxiaoqushifenxi" unicode="&#xe657;" 
d="M41 11h942v-53h-942v53zM37 255l118 74l219 -108l241 352l245 -183l119 5v-32l-133 -7l-222 164l-239 -346l-227 113l-121 -74v42zM867 441l55 2v183q0 12 -8.5 20.5t-20.5 8.5h-86q-12 0 -20.5 -8.5t-8.5 -20.5v-120zM833 304l-55 40v-284h144v248zM604 636l86 -64v230
q0 12 -8.5 20.5t-20.5 8.5h-85q-12 0 -20.5 -8.5t-8.5 -20.5v-249zM628 455l-81 -118v-277h143v349zM393 113l-75 37v-90h143v153zM361 280l100 147v19q0 12 -8.5 20.5t-20.5 8.5h-85q-12 0 -20.5 -8.5t-8.5 -20.5v-145zM150 383l81 -39v206q0 12 -8.5 20.5t-20.5 8.5h-85
q-12 0 -20.5 -8.5t-8.5 -20.5v-206zM157 230l-69 -42v-123v-5h142q1 3 1 5v128z" />
    <glyph glyph-name="baojing" unicode="&#xe608;" 
d="M870 98h-64l-39 117l-43 128l-40 121l-42 128l-49 148q-6 18 -25 18h-103q-19 0 -25 -18l-72 -216l-50 -151l-47 -142l-41 -123l-3 -10h-73q-11 0 -18.5 -8t-7.5 -19v-35q0 -11 7.5 -18.5t18.5 -7.5h716q11 0 19 7.5t8 18.5v35q0 11 -8 19t-19 8zM483 705h66l1 -1
q-1 -14 -10.5 -24t-23 -10t-23.5 10t-10 24v1zM591 579l42 -128l-255 -63l50 151zM673 331l43 -128l-374 -93h-56l45 136z" />
    <glyph glyph-name="dangji" unicode="&#xe607;" 
d="M812 192q1 7 2 12v5v4.5v5.5q1 7 0 15q1 21 -3 40q-2 10 -5 23q-1 2 -2 5.5t-1 4.5l-5 15q-2 6 -5 14l-1.5 4t-2.5 7q-1 4 -4 12t-4 10v1h-1v0q0 2 -1 5q-28 72 -35 109q-4 20 -4 40v0q1 55 35 95q4 4 1 9t-8 4q-36 -6 -64.5 -25.5t-46.5 -46.5t-28 -50t-16 -47
q-35 66 -50.5 140t-15.5 174q0 5 -4 7.5t-8 -0.5q-23 -14 -40.5 -33t-28 -36.5t-19.5 -44.5t-13 -43.5t-10 -48.5q0 -106 -49 -179q-7 23 -18 42t-29.5 35.5t-31 26t-36.5 25.5t-38 26q-4 4 -9 0.5t-3 -9.5q15 -41 15 -99.5t-7 -105.5q-4 -34 -5.5 -51.5t-2 -49t2.5 -51
t10 -46.5t19.5 -46t32 -39.5t46.5 -36.5q40 -20 81 -32h3v0q8 0 8 8q0 5 -5 7q-22 18 -32 42.5t-8.5 50t3.5 55.5q6 61 1 90q1 -1 2 -1q17 -12 26 -18.5t18.5 -20.5t12.5 -30q0 -5 5.5 -6.5t8.5 3.5q33 44 33 106q5 23 8 35t11.5 28t20.5 27q2 -96 41 -164q3 -5 8.5 -4
t6.5 7q12 62 52 82q-6 -14 -7.5 -28.5t2.5 -32t7.5 -28.5t10.5 -30q14 -35 16 -51q2 -8 2 -18q4 -55 -65 -100q-6 -3 -3 -10q2 -5 8 -5l2 1l20 6q172 86 193 201v0.5v1.5z" />
    <glyph glyph-name="quanbu" unicode="&#xe609;" 
d="M470 405q-36 19 -67 38v-46h-115v-64h149v-49h-149v-70h194v-47h-445v47h193v70h-149v49h149v64h-113v44q-32 -22 -72 -40q-13 22 -29 46q155 77 222 176l62 -6l-8 -14q79 -95 208 -149q-2 -2 -4 -8q-18 -29 -26 -41zM262 566q-54 -66 -137 -119h272q-82 49 -135 119z
M528 389v44h73q-2 4 -6 10q-21 33 -35 51l41 22q4 -6 12 -16q22 -27 32 -46l-40 -21h72v1l6 9q26 48 37 73l46 -18q-16 -28 -38 -65h72v-44h-272zM542 518v44h103q-4 14 -16 39q-1 3 -2 5t-2 4.5t-2 2.5l54 8q7 -16 20 -49q2 -6 4 -10h87v-44h-246zM556 149v194h218v-192
h-50v30h-119v-32h-49zM605 302v-82h119v82h-119zM822 145v446h176v-47l-47 -131q59 -56 57 -121q2 -84 -69 -88q-14 -2 -50 -2q-4 29 -10 54q21 -2 42 -2q38 0 38 44q0 51 -58 109l46 139h-78v-401h-47z" />
    <glyph glyph-name="wenti" unicode="&#xe60a;" 
d="M590 718q-12 21 -33 33t-45 12t-45 -12t-33 -33l-328 -579q-26 -45 0 -89q12 -21 33 -33t45 -12h656q24 0 45 12t33 33q26 44 0 89zM553 115.5q-15 -13.5 -35 -13.5t-35 13.5t-15 36.5q0 21 14 35q14 15 35 15t36 -14.5t15 -35.5q0 -23 -15 -36.5zM566 484l-15 -164
q-2 -29 -9.5 -44.5t-25.5 -15.5t-25 15t-10 46l-11 159q-3 47 -3 67q0 27 15 43q14 15 38 15q28 0 38 -19.5t10 -57.5q0 -20 -2 -44z" />
    <glyph glyph-name="zhujie" unicode="&#xe60b;" 
d="M634 762h-244q-113 0 -193 -86.5t-80 -209.5q0 -111 66.5 -193.5t166.5 -98.5v-136q0 -22 20 -30q7 -2 13 -2q14 0 23 10l149 155h79q113 0 193 86.5t80 209t-80 209t-193 86.5zM483 475q0 -85 -32 -119.5t-87 -34.5q-6 0 -6 5v46q0 5 6 5q43 0 43 62v19h-69q-6 0 -6 5
v127q0 6 6 6h140q6 0 6 -6v-115h-1zM693 475q0 -85 -32 -119.5t-88 -34.5q-5 0 -5 5v46q0 5 5 5q44 0 44 62v19h-69q-6 0 -6 5v127q0 6 6 6h140q5 0 5 -6v-115z" />
    <glyph glyph-name="iconfontxinjianwenjian" unicode="&#xe66a;" horiz-adv-x="1094" 
d="M267 877h387v-64v-64q1 -36 18 -67.5t48 -45.5q17 -8 46 -7h68.5h68.5v-247q-73 8 -133 -15q-88 -33 -138 -111h-145.5h-145.5q-30 0 -49 -26q-20 -27 -8 -59q7 -17 23 -28.5t34 -10.5h123.5h123.5q-9 -106 49 -188h-351q-21 -1 -45 12q-44 22 -69 62q-17 26 -16 56v334
v334q-2 55 44 100q33 32 67 35zM332 504q-16 -3 -29 -13t-19 -25q-13 -34 9 -62q19 -24 49 -24h374q23 0 40.5 15.5t20.5 37.5q5 27 -14 49.5t-46 21.5h-184h-185h-16zM716 877h10q9 -1 19.5 -6.5t14.5 -8t18 -14l14 -11.5q4 -4 17 -15t18 -15.5t16 -14.5t17.5 -16.5t15 -16
t14.5 -18.5q16 -19 13 -49h-147q-12 0 -20 11q-18 21 -20 52v61v61zM851 320h11h11q38 0 68 -11q39 -12 71.5 -39.5t52.5 -64.5q44 -84 14 -172q-13 -44 -45.5 -79.5t-75.5 -53.5q-86 -36 -172 0q-76 31 -111 106q-39 82 -11 165q16 50 55.5 88t90.5 53q16 4 34 7h3t4 1z
M840 229q-1 -15 -0.5 -48t-0.5 -48q-67 0 -72 -1q-1 1 -4 1h-5q-27 0 -35 -11q-12 -13 -5.5 -30.5t23.5 -20.5h15t15 -1q1 1 3.5 0.5t3.5 0.5q13 -1 36 -1h26q-1 -38 -1 -93q0 -12 10 -21.5t22 -8.5q12 -1 21 8t9 21q0 19 0.5 54t0.5 41h50h49q11 3 18 11.5t7 19.5
q0 21 -21 29q-2 1 -28 2q-52 0 -75 -1q0 13 -0.5 45t-0.5 50q0 10 -6.5 18t-16.5 12q-13 3 -25 -5.5t-13 -22.5v0z" />
    <glyph glyph-name="tongzhi" unicode="&#xe60c;" 
d="M836 476h-67v152l-108 107h-406v-259h-67v0q-10 0 -17.5 -7.5t-7.5 -17.5v-394q0 -10 7.5 -17t17.5 -7h649q10 0 17 7t7 17v394q0 10 -7.5 17.5t-17.5 7.5zM365 616h134q10 0 10 -10t-10 -10h-134q-10 0 -10 10t10 10zM365 537h294q10 0 10 -9.5t-10 -9.5h-294
q-10 0 -10 9.5t10 9.5zM365 457h294q10 0 10 -9.5t-10 -9.5h-294q-10 0 -10 9.5t10 9.5zM812 82h-600v345h12l288 -194l288 194h12v-345v0z" />
    <glyph glyph-name="adjust" unicode="&#xe626;" 
d="M512 75v618q-84 0 -155 -41.5t-112.5 -112.5t-41.5 -155t41.5 -155t112.5 -112.5t155 -41.5zM949 384q0 -119 -58.5 -219.5t-159 -159t-219.5 -58.5t-219.5 58.5t-159 159t-58.5 219.5t58.5 219.5t159 159t219.5 58.5t219.5 -58.5t159 -159t58.5 -219.5z" />
    <glyph glyph-name="bell" unicode="&#xe639;" 
d="M520 -16q0 8 -8 8q-30 0 -51 21t-21 51q0 8 -8 8t-8 -8q0 -36 26 -62t62 -26q8 0 8 8zM928 128q0 -26 -19 -45t-45 -19h-224q0 -53 -37.5 -90.5t-90.5 -37.5t-90.5 37.5t-37.5 90.5h-224q-26 0 -45 19t-19 45q25 21 45.5 44t42.5 59.5t37 79.5t25 103t10 130
q0 76 58.5 141t153.5 79q-4 10 -4 20q0 20 14 34t34 14t34 -14t14 -34q0 -10 -4 -20q95 -14 153.5 -79t58.5 -141q0 -70 10 -130t25 -103t37 -79.5t42.5 -59.5t45.5 -44z" />
    <glyph glyph-name="cube" unicode="&#xe627;" 
d="M555 -7l341 186v339l-341 -124v-401v0zM521 454l372 136l-372 135l-373 -135zM964 589v-410q0 -18 -9.5 -34t-25.5 -26l-376 -204q-15 -9 -32.5 -9t-32.5 9l-375 204q-17 10 -26.5 26t-9.5 34v410q0 21 12 38.5t33 25.5l375 136q12 5 23.5 5t23.5 -5l375 -136
q21 -8 33 -25.5t12 -38.5z" />
    <glyph glyph-name="all" unicode="&#xe60d;" 
d="M334 191l-30 76h-149l-28 -76h-101l161 386h91l159 -386h-103zM231 474l-49 -132h97zM470 191v386h93v-305h149v-81h-242zM756 191v386h93v-305h149v-81h-242z" />
    <glyph glyph-name="phone1" unicode="&#xe628;" 
d="M736 896h-448q-40 0 -68 -28t-28 -68v-832q0 -40 28 -68t68 -28h448q40 0 68 28t28 68v832q0 40 -28 68t-68 28zM384 848h256v-32h-256v32zM512 -64q-27 0 -45.5 18.5t-18.5 45.5t18.5 45.5t45.5 18.5t45.5 -18.5t18.5 -45.5t-18.5 -45.5t-45.5 -18.5zM768 128h-512v640
h512v-640z" />
    <glyph glyph-name="close" unicode="&#xe63d;" 
d="M730.5 133q-13.5 0 -23.5 9l-437 438q-10 9 -10 22.5t10 23.5t23.5 10t22.5 -10l438 -437q9 -10 9 -23.5t-9.5 -23t-23 -9.5zM293.5 133q-13.5 0 -23.5 9.5t-10 23t10 23.5l437 437q10 10 23.5 10t23 -10t9.5 -23.5t-9 -22.5l-438 -438q-9 -9 -22.5 -9z" />
    <glyph glyph-name="dreamy" unicode="&#xe600;" 
d="M770 282q-8 0 -12.5 -6t-4.5 -14q0 -10 4 -16t13 -6t13.5 6t4.5 16t-4.5 15t-13.5 5zM778 250.5q-3 -3.5 -8 -3.5t-7.5 4t-2.5 11q0 6 2.5 10t7.5 4q10 0 10 -14q1 -8 -2 -11.5zM813 257l-19 25h-4v-41h7v25l20 -25h3v41h-7v-25zM831 275h19v7h-26v-41h17l3 7h-13v12h15
v6h-15v9zM907.5 279q-4.5 3 -13.5 3h-9v-41h7v15h4q16 0 16 14q0 6 -4.5 9zM902.5 264q-2.5 -2 -7.5 -2h-3v13q1 1 2 1q11 0 11 -7q0 -3 -2.5 -5zM943 281l-9 -27l-9 27h-4l-8 -40h7l5 22l8 -23h3l8 23l4 -22h7l-8 40h-4zM862 283l-16 -42h8l9 28l10 -28h8l-16 42h-3z
M226 446q0 82 -84 82q-33 0 -53 -20.5t-20 -54.5q0 -7 1 -42h156v35v0zM201 439h-107q-1 8 -1 13q0 47 50 47q28 0 43 -12t15 -33v-15zM70 312q0 -33 20 -53t55 -20q7 0 42 1v156h-35q-82 0 -82 -84zM159 264h-13q-47 0 -47 50q0 27 12 42.5t33 15.5q8 0 15 -1v-107z
M201 357v-35q0 -82 85 -82q33 0 53 20.5t20 54.5q0 7 -1 42h-157zM284 269q-28 0 -43 12t-15 33q0 8 1 15h106q1 -8 1 -13q0 -47 -50 -47zM357 456q0 33 -20 53t-54 20q-7 0 -42 -1v-156h35q81 0 81 84zM269 504h12q47 0 47 -50q0 -27 -12 -42.5t-33 -15.5q-8 0 -14 1v107z
M428 488q-18 0 -29 -12v10h-27v-114h27v65q0 12 7 20.5t16 8.5t16 -5l11 23q-7 4 -21 4zM505 488q-24 0 -40.5 -16.5t-16.5 -43.5t15.5 -42.5t41.5 -15.5q28 0 42 11l-10 21q-10 -10 -28 -10q-15 0 -23.5 7.5t-9.5 21.5h82q2 10 2 15q0 23 -15 38q-15 14 -40 14zM477 441
q5 25 28 25q25 0 28 -25h-56zM659 407v25q0 33 -12.5 44.5t-38.5 11.5q-19 0 -33 -6l6 -21q10 5 25 5q26 0 26 -20q-7 2 -11 2q-28 0 -43 -11.5t-15 -30.5q0 -17 10.5 -26.5t29.5 -9.5q10 0 19 4t13 10q1 -5 6 -9.5t10 -4.5q6 0 10 2q4 1 7 7q-9 5 -9 28zM632 415
q0 -24 -24 -24q-18 0 -18 16q0 20 32 20q3 0 10 -1v-11v0zM810 443v-71h27v75q0 19 -10.5 30t-30.5 11q-9 0 -18 -3.5t-14 -8.5q-11 12 -34 12q-18 0 -29 -12l-6 10h-18v-114h26v82q3 4 9 8t11 4q10 0 15 -5t5 -14v-76h27v83q3 5 8.5 8.5t11.5 3.5q20 0 20 -23zM885 367
q0 -16 -31 -16v-23q19 0 33 7q14 8 18 19l50 133h-27l-29 -79l-31 79h-28l36 -89q9 -21 9 -31z" />
    <glyph glyph-name="point" unicode="&#xe60f;" 
d="M512 384zM205 384q0 127 90 217t217 90t217 -90t90 -217t-90 -217t-217 -90t-217 90t-90 217z" />
    <glyph glyph-name="arrowup01" unicode="&#xe611;" 
d="M512 570l-328 -317l66 -55l262 252l262 -252l66 55z" />
    <glyph glyph-name="overview" unicode="&#xe652;" 
d="M320 640q0 -27 -18.5 -45.5t-45.5 -18.5h-128q-27 0 -45.5 18.5t-18.5 45.5v128q0 27 18.5 45.5t45.5 18.5h128q27 0 45.5 -18.5t18.5 -45.5v-128zM640 640q0 -27 -18.5 -45.5t-45.5 -18.5h-128q-27 0 -45.5 18.5t-18.5 45.5v128q0 27 18.5 45.5t45.5 18.5h128
q27 0 45.5 -18.5t18.5 -45.5v-128zM960 640q0 -27 -18.5 -45.5t-45.5 -18.5h-128q-27 0 -45.5 18.5t-18.5 45.5v128q0 27 18.5 45.5t45.5 18.5h128q27 0 45.5 -18.5t18.5 -45.5v-128zM320 320q0 -27 -18.5 -45.5t-45.5 -18.5h-128q-27 0 -45.5 18.5t-18.5 45.5v128
q0 27 18.5 45.5t45.5 18.5h128q27 0 45.5 -18.5t18.5 -45.5v-128zM640 320q0 -27 -18.5 -45.5t-45.5 -18.5h-128q-27 0 -45.5 18.5t-18.5 45.5v128q0 27 18.5 45.5t45.5 18.5h128q27 0 45.5 -18.5t18.5 -45.5v-128zM960 320q0 -27 -18.5 -45.5t-45.5 -18.5h-128
q-27 0 -45.5 18.5t-18.5 45.5v128q0 27 18.5 45.5t45.5 18.5h128q27 0 45.5 -18.5t18.5 -45.5v-128zM320 0q0 -27 -18.5 -45.5t-45.5 -18.5h-128q-27 0 -45.5 18.5t-18.5 45.5v128q0 27 18.5 45.5t45.5 18.5h128q27 0 45.5 -18.5t18.5 -45.5v-128zM640 0q0 -27 -18.5 -45.5
t-45.5 -18.5h-128q-27 0 -45.5 18.5t-18.5 45.5v128q0 27 18.5 45.5t45.5 18.5h128q27 0 45.5 -18.5t18.5 -45.5v-128zM960 0q0 -27 -18.5 -45.5t-45.5 -18.5h-128q-27 0 -45.5 18.5t-18.5 45.5v128q0 27 18.5 45.5t45.5 18.5h128q27 0 45.5 -18.5t18.5 -45.5v-128z" />
    <glyph glyph-name="bars" unicode="&#xe645;" 
d="M73 603h878q30 0 51.5 21.5t21.5 52t-21.5 52t-51.5 21.5h-878q-30 0 -51.5 -21.5t-21.5 -52t21.5 -52t51.5 -21.5zM951 457h-878q-30 0 -51.5 -21.5t-21.5 -51.5t21.5 -51.5t51.5 -21.5h878q30 0 51.5 21.5t21.5 51.5t-21.5 51.5t-51.5 21.5zM951 165h-878
q-30 0 -51.5 -21.5t-21.5 -52t21.5 -52t51.5 -21.5h878q30 0 51.5 21.5t21.5 52t-21.5 52t-51.5 21.5z" />
    <glyph glyph-name="oneapmlogo" unicode="&#xe616;" 
d="M274 325q4 0 5 -6l25 -101h-60l24 101q2 6 6 6zM857 227q-25 -35 -62 -65v189q0 6 -4 10t-9 4h-28q-9 0 -13 -9l-52 -106q-2 -5 -3.5 -5t-3.5 5l-52 106q-4 9 -13 9h-28q-5 0 -9 -4t-4 -10v-239q0 -5 6 -5h34q5 0 5 7v161q0 4 1 4t2 -2l33 -67q4 -6 11 -6h35q8 0 11 6
l33 67q1 2 2 2t1 -4v-145q-64 -37 -146 -59q-177 -48 -304 10q-43 19 -77 51l11 47h79l16 -66q1 -6 6 -6h37q6 0 6 6v0.5v1.5l-56 215q-9 35 -48 35t-48 -35l-40 -155q-37 51 -55 122q-39 145 43 250q27 35 66 64q-11 -23 -11 -58v-42q0 -54 26.5 -81t72 -27t72 27t26.5 81
v42q0 55 -26.5 81.5t-71.5 26.5h-2.5h-1.5q50 23 111 40q157 42 288 -13q27 -12 50 -27h-25q-38 0 -59 -15t-21 -56v-116q0 -41 21 -56t59 -15q34 0 67 5q7 1 7 7v22q0 7 -8 7h-71q-15 0 -21.5 6.5t-6.5 23.5v42h95q7 0 7 7v25q0 7 -7 7h-94v35q0 17 6 23.5t21 6.5h79
q49 -52 69 -129q42 -156 -34 -264zM400 360q-11 -1 -11 -10v-236q0 -7 7 -7h34q7 0 7 7v89l12.5 -0.5t17.5 -0.5q44 0 71 19t27 61v3q0 80 -98 80q-38 0 -67 -5zM641 654q0 7 -7 7h-29q-8 0 -8 -7v-182q0 -3 -1 -3t-3 2l-79 179q-5 11 -15 11h-37q-6 0 -10 -4t-4 -10v-237
q0 -7 7 -7h29q7 0 7 7v174q0 3 1.5 3t3.5 -3l75 -168q6 -13 21 -13h35q5 0 9.5 4t4.5 10v237v0zM518 285v-3q0 -21 -12 -31t-39 -10q-15 0 -30 1v82q11 1 30 1q26 0 38.5 -9t12.5 -31zM377 553v-42q0 -66 -50 -66t-50 66v42q0 66 50 66t50 -66z" />
    <glyph glyph-name="load" unicode="&#xe651;" 
d="M394 696q0 57 40.5 98t98 41t98 -41t40.5 -98t-40.5 -97.5t-98 -40.5t-98 40.5t-40.5 97.5zM82 350q0 43 30.5 73.5t73.5 30.5t73.5 -30.5t30.5 -73.5t-30.5 -73.5t-73.5 -30.5t-73.5 30.5t-30.5 73.5zM757 592q0 7 5 12t12.5 5t12.5 -5t5 -12t-5 -12t-12.5 -5t-12.5 5
t-5 12zM368 671q-32 33 -78 33t-78.5 -33t-32.5 -79t32.5 -78.5t78.5 -32.5t78 32.5t32 78.5t-32 79zM844 349.5q0 14.5 10 24.5t24.5 10t24.5 -10t10 -24.5t-10 -24.5t-24.5 -10t-24.5 10t-10 24.5zM725 105.5q0 21.5 15 36.5t36.5 15t37 -15t15.5 -36.5t-15.5 -37
t-37 -15.5t-36.5 15.5t-15 37zM463 3.5q0 28.5 20 49t49 20.5t49 -20.5t20 -49t-20 -49t-49 -20.5t-49 20.5t-20 49zM203 107q0 36 25.5 61.5t61.5 25.5t61 -25.5t25 -61.5t-25 -61t-61 -25t-61.5 25t-25.5 61z" />
    <glyph glyph-name="edit" unicode="&#xe637;" horiz-adv-x="1025" 
d="M507 219l67 67l-87 87l-66 -67v-32h54v-55h32zM759 631q-9 9 -19 -1l-200 -200q-10 -9 -0.5 -18.5t18.5 0.5l200 200q10 10 1 19zM805 291v-108q0 -68 -48.5 -116.5t-116.5 -48.5h-475q-68 0 -116.5 48.5t-48.5 116.5v475q0 68 48.5 116.5t116.5 48.5h475q36 0 67 -14
q8 -4 10 -14q2 -9 -5 -16l-28 -28q-8 -8 -18 -5q-13 4 -26 4h-475q-38 0 -65 -27t-27 -65v-475q0 -38 27 -65t65 -27h475q38 0 64.5 27t26.5 65v72q0 7 6 12l36 37q9 9 20.5 4t11.5 -17zM750 713l164 -164l-384 -384h-164v164zM1003 638l-52 -53l-165 165l53 52q16 16 39 16
t39 -16l86 -87q16 -16 16 -38.5t-16 -38.5v0z" />
    <glyph glyph-name="dashboard" unicode="&#xe629;" 
d="M238 246.5q0 28.5 -20 48.5t-48.5 20t-48.5 -20t-20 -48.5t20 -48.5t48.5 -20t48.5 20t20 48.5zM341 486.5q0 28.5 -20.5 48.5t-48.5 20t-48.5 -20t-20.5 -48.5t20.5 -48.5t48.5 -20t48.5 20t20.5 48.5zM570 229l54 205q3 14 -4 26t-20.5 15.5t-26 -3.5t-16.5 -21
l-54 -205q-32 -2 -57 -23t-34 -53q-10 -41 11.5 -78t62.5 -47.5t78 11t48 62.5q8 32 -3.5 62.5t-38.5 48.5zM923 246.5q0 28.5 -20 48.5t-48.5 20t-48.5 -20t-20 -48.5t20 -48.5t48.5 -20t48.5 20t20 48.5zM581 589.5q0 28.5 -20.5 48.5t-48.5 20t-48.5 -20t-20.5 -48.5
t20.5 -48.5t48.5 -20t48.5 20t20.5 48.5zM821 486.5q0 28.5 -20.5 48.5t-48.5 20t-48.5 -20t-20.5 -48.5t20.5 -48.5t48.5 -20t48.5 20t20.5 48.5zM992 247q0 -140 -76 -259q-10 -15 -28 -15h-752q-18 0 -28 15q-76 118 -76 259q0 97 38 186t102.5 153.5t153 102.5t186 38
t186.5 -38t153.5 -102.5t102.5 -153.5t38 -186v0z" />
    <glyph glyph-name="desktop" unicode="&#xe62a;" horiz-adv-x="1098" 
d="M962 336v418q0 6 -5 11t-11 5h-804q-6 0 -11 -5t-5 -11v-418q0 -7 5 -11.5t11 -4.5h804q6 0 11 4.5t5 11.5zM1026 754v-547q0 -33 -23.5 -56.5t-56.5 -23.5h-273q0 -19 8 -39t16 -35.5t8 -22.5q0 -13 -9.5 -22.5t-22.5 -9.5h-257q-13 0 -23 9.5t-10 22.5q0 7 8 22.5
t16.5 35.5t8.5 39h-274q-33 0 -56.5 23.5t-23.5 56.5v547q0 33 23.5 56.5t56.5 23.5h804q33 0 56.5 -23.5t23.5 -56.5v0z" />
    <glyph glyph-name="exclamation-triangle" unicode="&#xe62b;" horiz-adv-x="1026" 
d="M581 107v102q0 8 -5 13t-12 5h-103q-7 0 -12 -5t-5 -13v-102q0 -7 5 -12t12 -5h103q7 0 12 5t5 12zM580 308l10 246q0 6 -6 10q-7 6 -13 6h-117q-6 0 -13 -6q-6 -4 -6 -11l10 -245q0 -6 5 -9.5t13 -3.5h99q7 0 12.5 3.5t5.5 9.5v0zM573 808l411 -754q19 -34 -1 -68
q-9 -15 -25 -24t-34 -9h-823q-18 0 -34 9t-25 24q-20 34 -1 68l412 754q9 17 25 26.5t34.5 9.5t34.5 -9.5t26 -26.5z" />
    <glyph glyph-name="map-marker" unicode="&#xe62c;" 
d="M678 550.5q0 68.5 -48.5 117.5t-117.5 49t-117.5 -49t-48.5 -117.5t48.5 -117.5t117.5 -49t117.5 49t48.5 117.5zM845 550q0 -70 -22 -116l-236 -503q-11 -22 -31.5 -34t-43.5 -12t-43.5 12t-30.5 34l-237 503q-22 46 -22 116q0 138 97.5 235.5t235.5 97.5t235.5 -97.5
t97.5 -235.5v0z" />
    <glyph glyph-name="sitemap" unicode="&#xe62d;" 
d="M1024 183v-183q0 -23 -16 -39t-39 -16h-183q-23 0 -39 16t-16 39v183q0 23 16 39t39 16h55v109h-292v-109h54q23 0 39 -16t16 -39v-183q0 -23 -16 -39t-39 -16h-182q-23 0 -39 16t-16 39v183q0 23 16 39t39 16h54v109h-292v-109h55q23 0 39 -16t16 -39v-183
q0 -23 -16 -39t-39 -16h-183q-23 0 -39 16t-16 39v183q0 23 16 39t39 16h55v109q0 30 21.5 52t51.5 22h292v109h-54q-23 0 -39 16t-16 39v183q0 23 16 39t39 16h182q23 0 39 -16t16 -39v-183q0 -23 -16 -39t-39 -16h-54v-109h292q30 0 51.5 -22t21.5 -52v-109h55
q23 0 39 -16t16 -39z" />
    <glyph glyph-name="stethoscope" unicode="&#xe62e;" 
d="M863 501q0 16 -11.5 27.5t-27.5 11.5t-27.5 -11.5t-11.5 -27.5t11.5 -27.5t27.5 -11.5t27.5 11.5t11.5 27.5zM941 501q0 -38 -21.5 -67.5t-56.5 -42.5v-241q0 -97 -80 -165.5t-193 -68.5t-193 68.5t-80 165.5v80q-100 13 -167 78.5t-67 153.5v312q0 16 11.5 27.5
t27.5 11.5q4 0 10 -1q10 18 28.5 29t39.5 11q32 0 55 -23t23 -55t-23 -55t-55 -23q-20 0 -39 11v-245q0 -65 57.5 -110.5t137.5 -45.5t137.5 45.5t57.5 110.5v245q-19 -11 -39 -11q-32 0 -55 23t-23 55t23 55t55 23q21 0 39.5 -11t28.5 -29q6 1 10 1q16 0 27.5 -11.5
t11.5 -27.5v-312q0 -88 -67 -153.5t-167 -78.5v-80q0 -65 57.5 -110.5t137.5 -45.5t137.5 45.5t57.5 110.5v241q-35 13 -56.5 42.5t-21.5 67.5q0 49 34 83t83 34t83 -34t34 -83z" />
    <glyph glyph-name="step-forward" unicode="&#xe65a;" 
d="M245 -47q-11 -11 -18.5 -7.5t-7.5 17.5v842q0 14 7.5 17.5t18.5 -7.5l406 -405q4 -5 7 -11v387q0 15 11 26t26 11h73q15 0 26 -11t11 -26v-804q0 -15 -11 -26t-26 -11h-73q-15 0 -26 11t-11 26v387q-3 -6 -7 -11z" />
    <glyph glyph-name="wechat" unicode="&#xe64a;" horiz-adv-x="1171" 
d="M353 602q0 21 -12.5 33.5t-32.5 12.5q-22 0 -38.5 -12.5t-16.5 -32.5t16.5 -33t38.5 -13q20 0 32.5 12.5t12.5 33.5v-1zM726 348q0 14 -12.5 25t-32.5 11q-14 0 -25 -11.5t-11 -24.5q0 -14 11 -25.5t25 -11.5q20 0 32.5 11t12.5 26zM608 602q0 21 -12.5 33.5t-32.5 12.5
q-22 0 -38.5 -12.5t-16.5 -32.5t16.5 -33t38.5 -13q20 0 32.5 12.5t12.5 33.5v-1zM927 348q0 14 -13 25t-33 11q-13 0 -24.5 -11.5t-11.5 -24.5q0 -14 11.5 -25.5t24.5 -11.5q20 0 33 11t13 26zM793 547q-15 2 -35 2q-85 0 -156 -38.5t-112 -104.5t-41 -145q0 -39 11 -76
q-17 -1 -34 -1q-13 0 -25 0.5t-27.5 3t-22.5 3.5t-27.5 5.5t-24.5 5.5l-127 -64l36 109q-146 102 -146 246q0 85 49 156.5t132.5 112.5t182.5 41q89 0 167.5 -33t131.5 -92t68 -131v0zM1091 265q0 -58 -34.5 -111.5t-93.5 -97.5l28 -91l-100 55q-76 -19 -110 -19
q-85 0 -156 35.5t-112 96.5t-41 132.5t41 132.5t112 96.5t156 35.5q81 0 152.5 -35.5t114.5 -96.5t43 -132v-1z" />
    <glyph glyph-name="windows" unicode="&#xe674;" 
d="M426 321v-372l-389 54v318h389zM426 746v-377h-389v323zM987 321v-449l-518 71v378h518zM987 823v-454h-518v382z" />
    <glyph glyph-name="databaseinsight" unicode="&#xe614;" 
d="M888 668q-22 84 -100.5 117t-171.5 8q-107 -29 -156 -91.5t-26 -149.5q17 -66 59 -102v185q0 9 9 11q24 4 68 4q52 0 80 -27.5t28 -78.5v-48q0 -67 -47 -92q34 0 73 9v160q0 7 7 7h31q7 0 7 -7v-146q81 29 119 83q45 65 20 158zM750 613q0 -7 -7 -7h-33q-8 0 -8 7v30
q0 7 8 7h33q7 0 7 -7v-30zM570 609q-5 0 -29 -1v-176q24 -1 29 -1q28 0 44 14.5t16 50.5v48q0 36 -16 50.5t-44 14.5zM172 194q-25 0 -38 2q-5 1 -5 6v130q0 5 5 6q14 2 38 2q29 0 44.5 -15t15.5 -44v-28q0 -29 -15.5 -44t-44.5 -15zM206 281q0 37 -34 37q-5 0 -17 -1v-100
q13 -1 17 -1q34 0 34 37v28zM322 195h-16q-4 0 -4 4v3q-14 -8 -27 -8q-34 0 -34 32v1q0 33 48 33h12v9q0 15 -17 15q-18 0 -32 -1h-1q-3 0 -3 3v12q0 4 4 5q15 3 32 3q42 0 42 -37v-70q0 -1 -1 -2.5t-3 -1.5zM301 243h-12q-13 0 -17.5 -4t-4.5 -12v-1q0 -12 14 -12
q10 0 20 5v24zM393 195q-7 -1 -13 -1q-17 0 -24 6t-7 24v61l-18 3q-4 0 -4 4v8q0 4 4 4h18v16q0 3 4 4l18 3h1q1 0 2 -1t1 -2v-20h18q3 0 3 -4v-11q0 -4 -3 -4h-18v-61q0 -7 1.5 -8.5t6.5 -1.5h10q4 0 4 -3v-12q0 -3 -4 -4zM481 195h-16q-4 0 -4 4v3q-14 -8 -27 -8
q-33 0 -33 32v1q0 33 47 33h12v9q0 15 -17 15q-18 0 -32 -1v0q-4 0 -4 3v12q0 4 4 5q15 3 32 3q42 0 42 -37v-70q0 -1 -1 -2.5t-3 -1.5zM460 243h-12q-13 0 -17.5 -4t-4.5 -12v-1q0 -12 14 -12q10 0 20 5v24zM545 194q-19 0 -39 5q-5 1 -5 5v134q0 4 4 4h17q4 0 4 -4v-34
q11 1 19 1q46 0 46 -48v-15q0 -48 -46 -48zM565 257q0 28 -20 28q-9 0 -19 -2v-67q6 -1 19 -1q20 0 20 27v15zM679 195h-16q-4 0 -4 4v3q-14 -8 -27 -8q-34 0 -34 32v1q0 33 47 33h13v9q0 15 -17 15q-18 0 -32 -1h-1q-3 0 -3 3v12q0 4 3 5q16 3 33 3q42 0 42 -37v-70
q0 -1 -1 -2.5t-3 -1.5zM658 243h-13q-12 0 -16.5 -4t-4.5 -12v-1q0 -12 14 -12q10 0 20 5v24zM734 194q-21 0 -35 4q-3 1 -3 4v12q0 3 3 3h1q17 -2 32 -2q14 0 14 9q0 4 -9 10l-26 16q-16 10 -16 26q0 29 36 29q17 0 35 -3q3 -1 3 -5v-11q0 -4 -3 -4h-1q-15 3 -32 3
q-13 0 -13 -8q0 -4 8 -8l25 -16q18 -11 18 -29q0 -13 -9.5 -21.5t-27.5 -8.5zM868 241h-63v-1q0 -24 23 -24q16 0 36 2h1q3 0 3 -3v-13q0 -4 -4 -5q-17 -3 -37 -3q-18 0 -32.5 11.5t-14.5 36.5v15q0 22 12 35t34 13t34 -13t12 -35v-11q0 -5 -4 -5zM846 260q0 23 -20 23
q-9 0 -15 -6t-6 -17v-1h41v1v0zM151 3h-19q-3 0 -3 4v136q0 4 3 4h19q4 0 4 -4v-136q0 -4 -4 -4zM258 3h-18q-4 0 -4 4v63q0 13 -2.5 17.5t-13.5 4.5q-9 0 -22 -7v-78q0 -4 -4 -4h-17q-4 0 -4 4v101q0 4 4 4h16q4 0 4 -4v-4q15 9 31 9q20 0 27 -11t7 -32v-63q0 -4 -4 -4z
M313 2q-21 0 -35 4q-4 0 -4 4v12q0 3 4 3v0q18 -3 33 -3q14 0 14 10q0 4 -9 9l-26 17q-17 9 -17 26q0 29 37 29q17 0 34 -4q4 -1 4 -4v-11q0 -4 -3 -4h-1q-16 2 -32 2q-13 0 -13 -8q0 -3 7 -8l26 -15q18 -11 18 -29q0 -13 -9.5 -21.5t-27.5 -8.5zM385 126h-19q-4 0 -4 4v17
q0 4 4 4h19q4 0 4 -4v-17q0 -4 -4 -4zM384 3h-18q-4 0 -4 4v101q0 4 4 4h18q4 0 4 -4v-101q0 -4 -4 -4zM496 94l-7 -2q5 -7 5 -16v-1q0 -35 -46 -35q-13 0 -21 3q-3 -2 -3 -5q0 -5 7 -6l22 -5q17 -4 24 -6.5t13.5 -9t6.5 -15.5v-2q0 -30 -48 -30q-47 0 -47 32v2q0 12 9 21
q-8 7 -8 18v0q0 10 7 16q-8 8 -8 22v1q0 36 46 36h45q6 0 6 -5v-8q0 -3 -3 -5zM471 -4q0 6 -23 11l-17 4q-5 -7 -5 -13v-2q0 -13 23 -13q22 0 22 11v2zM469 76q0 16 -21 16t-21 -16v-1q0 -16 21 -16t21 16v1zM592 3h-18q-3 0 -3 4v64q0 12 -3.5 16.5t-13 4.5t-22.5 -7v-78
q0 -4 -3 -4h-18q-4 0 -4 4v139q0 4 4 4h18q3 0 3 -4v-40q12 7 30 7q34 0 34 -42v-64q0 -4 -4 -4zM665 3q-8 -1 -13 -1q-18 0 -24.5 6t-6.5 24v61l-18 3q-4 0 -4 3v9q0 4 4 4h18v16q0 3 4 4l18 3v0q4 0 4 -3v-20h17q4 0 4 -4v-11q0 -4 -4 -4h-17v-61q0 -7 1 -8.5t6 -1.5h10
q4 0 4 -3v-12q0 -3 -3 -4zM176 412v12q0 27 -24.5 27t-24.5 -27v-12q0 -28 24.5 -28t24.5 28zM164 412q0 -17 -12.5 -17t-12.5 17v12q0 17 12.5 17t12.5 -17v-12zM231 388v62q0 1 -1 1h-8q-1 0 -1 -1l-1 -48v-1l-1 1l-20 47q-1 2 -3 2h-10q-3 0 -3 -3v-62q0 -2 2 -2h7
q1 0 1 2l1 46v1l1 -1l19 -45q1 -3 5 -3h9q3 0 3 4zM278 387v6q0 2 -2 2h-18q-6 0 -6 7v12h23q2 0 2 1v7q0 2 -2 2h-23v9q0 8 6 8h18q2 0 2 1v6q0 2 -2 2q-8 1 -16 1q-20 0 -20 -18v-31q0 -18 20 -18q8 0 16 2q2 0 2 1zM332 386v0l-14 56q-2 9 -11.5 9t-12.5 -9l-14 -56v0
q0 -2 2 -2h9q1 0 1 2l4 17h20l4 -17q0 -2 2 -2h9q1 0 1 2zM314 413h-15l6 27q0 1 1 1t2 -1zM380 430v1q0 20 -24 20q-10 0 -17 -1q-3 0 -3 -2v-62q0 -2 2 -2h9q1 0 1 2v24h8q24 0 24 20zM369 430q0 -10 -13 -10h-8v21h8q13 0 13 -10v-1zM441 386v62q0 4 -4 4h-7q-2 0 -3 -3
l-13 -27l-1 -1l-1 1l-13 27q-1 2 -3 2h-7q-3 0 -3 -3v-63q0 -1 1 -1h9q1 0 1 2v43h0.5h0.5l8 -17q1 -1 3 -1h9q2 0 2 1l9 17v0v0v-43q0 -2 2 -2h8q2 0 2 2z" />
    <glyph glyph-name="di" unicode="&#xe615;" 
d="M897 493q-38 143 -171 199.5t-292 13.5q-182 -49 -266 -156q-83 -107 -44 -255q30 -110 100 -173v315q0 16 15 18q43 7 116 7q89 0 137 -46.5t48 -133.5v-81q0 -114 -81 -157q59 0 124 16v271q0 5 3.5 8.5t8.5 3.5h54q5 0 8.5 -3.5t3.5 -8.5v-248q137 49 201 141
q78 111 35 269zM663 399q0 -5 -3.5 -8.5t-8.5 -3.5h-57q-5 0 -8.5 3.5t-3.5 8.5v52q0 4 3.5 7.5t8.5 3.5h57q5 0 8.5 -3t3.5 -8v-52v0zM355 394q-9 0 -49 -2v-301q39 -1 49 -1q49 0 76.5 24.5t27.5 86.5v81q0 62 -27.5 87t-76.5 25z" />
    <glyph glyph-name="arrow-left" unicode="&#xe63e;" 
d="M920 427v-73q0 -31 -18.5 -52.5t-47.5 -21.5h-403l168 -168q21 -20 21 -51t-21 -51l-43 -44q-21 -21 -52 -21q-29 0 -52 21l-372 373q-21 21 -21 51t21 52l372 371q22 22 52 22t52 -22l43 -42q21 -22 21 -52t-21 -52l-168 -167h403q29 0 47.5 -21.5t18.5 -51.5v0z" />
    <glyph glyph-name="close1" unicode="&#xe638;" 
d="M898 156q0 -26 -18 -45l-88 -88q-19 -18 -45 -18t-44 18l-191 191l-191 -191q-18 -18 -44 -18t-45 18l-88 88q-18 19 -18 45t18 44l191 191l-191 191q-18 18 -18 44t18 44l88 89q19 18 45 18t44 -18l191 -191l191 191q18 18 44 18t45 -18l88 -89q18 -18 18 -44t-18 -44
l-191 -191l191 -191q18 -18 18 -44z" />
    <glyph glyph-name="flag" unicode="&#xe620;" 
d="M159 750q0 -41 -37 -63v-724q0 -7 -5.5 -12.5t-12.5 -5.5h-37q-7 0 -12.5 5.5t-5.5 12.5v724q-37 22 -37 63q0 30 21.5 51.5t52 21.5t52 -21.5t21.5 -51.5zM1000 713v-436q0 -14 -7.5 -22t-22.5 -16q-123 -66 -211 -66q-35 0 -70.5 12.5t-62 27.5t-66 27.5t-81.5 12.5
q-110 0 -265 -83q-10 -5 -19 -5q-15 0 -25.5 10.5t-10.5 25.5v424q0 18 17 32q12 8 45 24q135 69 241 69q61 0 114 -16.5t125 -50.5q22 -11 51 -11q31 0 67 12t62.5 27t50.5 27t31 12q15 0 26 -11t11 -26v0z" />
    <glyph glyph-name="sign-out" unicode="&#xe646;" 
d="M424 73q0 -2 0.5 -11t0 -15t-2 -13.5t-5.5 -11.5t-12 -4h-182q-68 0 -116.5 48.5t-48.5 116.5v402q0 68 48 116.5t117 48.5h182q8 0 13.5 -5.5t5.5 -13.5q0 -2 0.5 -11t0 -15t-2 -13.5t-5.5 -11.5t-12 -4h-182q-38 0 -65 -26.5t-27 -64.5v-402q0 -38 27 -65t65 -27h178h6
l7 -2l5 -3l4 -5l1 -8v0zM954 384q0 -15 -11 -26l-311 -311q-11 -10 -25.5 -10t-25.5 10.5t-11 25.5v165h-256q-15 0 -26 10.5t-11 25.5v220q0 15 11 25.5t26 10.5h256v165q0 15 11 25.5t25.5 10.5t25.5 -10l311 -311q11 -11 11 -26z" />
    <glyph glyph-name="toggle-on" unicode="&#xe6db;" horiz-adv-x="1171" 
d="M0 288q0 74 29 142t78 116.5t116.5 78t142.5 29.5h439q74 0 141.5 -29.5t116.5 -78t78 -116.5t29 -142t-29 -142t-78 -116.5t-116.5 -78t-141.5 -29.5h-439q-75 0 -142.5 29.5t-116.5 78t-78 116.5t-29 142v0zM804.5 -5q59.5 0 113.5 23.5t93.5 63t62.5 93.5t23 113
t-23 113t-62.5 93.5t-93.5 63t-113.5 23.5t-113.5 -23.5t-93.5 -63t-62.5 -93.5t-23 -113t23 -113t62.5 -93.5t93.5 -63t113.5 -23.5z" />
    <glyph glyph-name="liutu" unicode="&#xe641;" 
d="M723 588l-239 71l-312 -236l-165 73v-569h1010v955zM927 1h-821v203l221 -130l262 312l187 -110l151 92v-367z" />
    <glyph glyph-name="copy" unicode="&#xe64b;" 
d="M790 20h80q7 0 12 5t5 12v767q0 7 -5 12.5t-12 5.5h-603q-8 0 -13 -5.5t-5 -12.5v-82h541v-702zM683 649h-516q-14 0 -24 -10t-10 -24v-635q0 -14 10 -24.5t24 -10.5h516q14 0 24 10.5t10 24.5v635q0 14 -10 24t-24 10zM621 150h-391q-11 0 -18 7.5t-7 19t7 19t18 7.5
h391q11 0 18.5 -7.5t7.5 -18.5t-7.5 -19t-18.5 -8zM621 297h-391q-11 0 -19 8t-8 19t8 19t19 8h391q11 0 18.5 -8t7.5 -19t-7.5 -19t-18.5 -8zM621 443h-391q-11 0 -19 8t-8 19t8 18.5t19 7.5h391q11 0 18.5 -7.5t7.5 -18.5t-7.5 -19t-18.5 -8z" />
    <glyph glyph-name="caretleft" unicode="&#xe647;" 
d="M963 -36l-460 436l460 437v-873z" />
    <glyph glyph-name="caretright" unicode="&#xe648;" 
d="M320 -75v895l512 -448z" />
    <glyph glyph-name="paiduxitong" unicode="&#xe6f2;" 
d="M960 627q47 -14 51.5 -25t-23.5 -49q-28 -40 -132 -172q-66 -85 -209 -99q-38 -4 -66 -35q-149 -161 -356 -278q-19 -10 -41 -17q-25 -7 -44 3t-29 34q-9 26 -10 43q-2 27 -7.5 104t-6 105t0.5 104q6 127 79.5 200.5t202.5 80.5q29 4 152.5 2t152.5 -2q34 0 99 3.5
t95 3.5q14 0 28.5 -1t34 -3t28.5 -2z" />
    <glyph glyph-name="download1" unicode="&#xe64f;" 
d="M839 768h-636l-130 -128v-576q0 -18 7 -31t17.5 -19t20.5 -9.5t17 -4.5h8h762q13 0 23.5 3.5t17 9t11.5 12t7 13t3 12t1.5 9l0.5 3.5v578zM528 64l-218 222h122l2 160h188v-158h110zM182 628l18 46h638l22 -46h-678z" />
    <glyph glyph-name="yanjing" unicode="&#xe673;" 
d="M511.5 626q125.5 0 228.5 -66.5t155 -175.5h67q-55 135 -177.5 219t-273 84t-273 -84t-177.5 -219h67q52 109 155 175.5t228.5 66.5zM511.5 141q-125.5 0 -228.5 66.5t-155 176.5h-67q55 -136 177.5 -220t273 -84t273 84t177.5 220h-67q-52 -110 -155 -176.5
t-228.5 -66.5zM350 384q0 -67 47 -114.5t114.5 -47.5t114.5 47.5t47 114.5t-47 114t-114.5 47t-114.5 -47t-47 -114zM613 383.5q0 -41.5 -30 -71.5t-71.5 -30t-71.5 30t-30 71.5t30 71.5t71.5 30t71.5 -30t30 -71.5z" />
    <glyph glyph-name="server" unicode="&#xe617;" 
d="M75 501v-234h874v234h-874zM235 340h-87v88h87v-88zM876 355h-408v58h408v-58zM75 792v-233h874v233h-874zM235 632h-87v87h87v-87zM876 646h-408v58h408v-58zM75 209v-233h874v233h-874zM235 49h-87v87h87v-87zM876 64h-408v58h408v-58z" />
    <glyph glyph-name="call" unicode="&#xe64c;" 
d="M509 257q-80 66 -141 143q-14 17 -22.5 30t-15.5 28.5t-5 28.5t12 23l-202 204q-11 -14 -19.5 -38.5t-8 -72t17.5 -101.5t66.5 -132t128.5 -160q83 -86 163 -141t137 -74t105.5 -20.5t74 8t37.5 21.5l-197 200q-10 -11 -21.5 -12.5t-29 7.5t-34.5 21.5t-46 36.5v0z
M908 120v0l-153 156q-10 9 -22.5 9t-21.5 -9l-56 -57l198 -200q3 4 9 10l18 18t20 20.5l8 8.5v0q10 10 9.5 22.5t-9.5 21.5v0zM408 582v0q10 10 9.5 22.5t-9.5 21.5v0l-158 160q-9 9 -22 9t-22 -9l-55 -57l201 -204l56 57v0z" />
    <glyph glyph-name="arrowright" unicode="&#xe63f;" 
d="M914 347q0 -30 -21 -52l-372 -372q-22 -21 -52 -21q-29 0 -51 21l-43 43q-22 22 -22 52.5t22 51.5l167 168h-402q-30 0 -48.5 21.5t-18.5 51.5v73q0 30 18.5 51.5t48.5 21.5h402l-167 168q-22 21 -22 51.5t22 51.5l43 43q21 22 51 22t52 -22l372 -372q21 -20 21 -52z" />
    <glyph glyph-name="file" unicode="&#xe62f;" 
d="M641 577v237q11 -7 18 -14l205 -205q7 -7 14 -18h-237zM576 561q0 -20 14 -34t34 -14h274v-531q0 -20 -14 -34t-34 -14h-676q-20 0 -34 14t-14 34v804q0 20 14 34t34 14h402v-273z" />
    <glyph glyph-name="globe" unicode="&#xe630;" 
d="M512 852q127 0 235 -62.5t170.5 -170.5t62.5 -235t-62.5 -235t-170.5 -170.5t-235 -62.5t-235 62.5t-170.5 170.5t-62.5 235t62.5 235t170.5 170.5t235 62.5zM679 535q-1 -1 -5.5 -6t-8.5 -6q1 0 2.5 3t3 6.5t2.5 4.5q4 4 13 9q9 4 32 7q21 5 31 -6q-1 1 6 7.5t9 7.5
t9 2.5t9 4.5l1 14q-7 -1 -10.5 4t-3.5 13q0 -1 -4 -5q0 4 -3 4.5t-7 -0.5t-5 0q-6 1 -9 4t-5 10t-3 9q-1 3 -5.5 6.5t-5.5 6.5q-1 1 -2 3.5t-2 4t-2.5 3t-3 1.5t-4 -3t-4.5 -6t-3 -3q-2 1 -4 1t-2.5 -0.5t-2.5 -2t-3 -2.5q-2 -1 -5.5 -1.5t-5.5 -1.5q10 3 0 7q-6 3 -10 2
q6 2 5 7t-6 9h3q0 2 -4.5 5t-10.5 5.5t-8 3.5q-5 3 -21 5.5t-20 -2.5q-3 -4 -3 -7t2.5 -8.5t2.5 -7.5q0 -4 -4 -8t-4 -7q0 -4 8.5 -9.5t6.5 -13.5q-2 -5 -10 -9.5t-10 -7.5q-3 -5 -0.5 -11.5t6.5 -9.5q1 -1 1 -2.5t-2 -3t-3.5 -2.5t-4.5 -2l-1 -1q-7 -3 -13 3.5t-8 15.5
q-4 16 -10 19q-14 5 -18 -1q-3 8 -25 16q-15 5 -35 2q4 1 0 9q-4 10 -11 8q1 3 2 10t1 9q1 8 7 14q1 0 4.5 4.5t5.5 8.5t3 4q21 -3 30 6q4 4 7.5 11t6.5 10q5 4 8 3.5t9 -3.5t9 -3q9 0 9.5 7t-4.5 12q7 -1 2 10q-3 5 -5 6q-7 2 -17 -3q-4 -3 2 -5q-1 1 -6 -6t-10 -11t-10 3
q-1 1 -3.5 8.5t-5.5 7.5q-5 0 -10 -9q2 5 -6.5 9.5t-14.5 4.5q11 8 -5 17q-4 2 -12.5 2.5t-11.5 -2.5q-3 -4 -3.5 -6.5t3 -5t6.5 -3.5t7 -2.5t5 -1.5q8 -6 5 -9q-1 0 -5 -1.5t-7 -3t-4 -2.5q-2 -2 0 -8.5t-1 -8.5q-3 3 -5.5 10.5t-4.5 10.5q4 -6 -15 -4l-6 1q-3 0 -10 -1.5
t-12.5 -1t-8.5 5.5q-2 5 0 12q1 2 3 1q-3 2 -7 6t-6 5q-28 -9 -58 -25q4 -1 8 1q3 1 8 3.5t6 3.5q21 8 25 4l3 3q9 -9 13 -15q-5 2 -19 1q-12 -4 -13 -8q4 -7 3 -11q-2 2 -7 6.5t-9 7t-9 2.5h-13q-89 -49 -144 -136q5 -4 8 -5q2 0 2.5 -5t1.5 -7t7 2q6 -5 2 -12q1 1 27 -16
q11 -10 13 -13q2 -6 -6 -11q-1 1 -6 5.5t-5 2.5q-2 -3 3 -11t6 -8q-4 0 -5.5 -9.5t-1.5 -21.5t-1 -14l1 -1q-1 -7 4 -21t13 -12q-8 -2 12 -26q4 -5 5 -6q2 -1 7.5 -4.5t9 -6t5.5 -6.5q3 -3 6.5 -13.5t8.5 -14.5q-1 -3 6 -11.5t6 -14.5l-1 -0.5t-2 -0.5q2 -4 9.5 -8.5
t9.5 -8.5q1 -1 1.5 -5.5t1.5 -7t5 -1.5q1 13 -15 38q-9 15 -10 18q-2 3 -3.5 9.5t-2.5 8.5q1 0 3.5 -1t5.5 -2t4.5 -2.5l1.5 -1.5q-2 -5 1 -11t7 -11t10.5 -11.5t7.5 -8.5q3 -3 8 -11.5t0 -8.5q6 0 12.5 -6t10.5 -12q3 -5 5 -16t3 -15t5 -8t8 -6l9 -4l8 -5q3 -1 11.5 -6
t13.5 -7q6 -3 9.5 -3t8.5 1.5t8 2.5q10 1 18.5 -9t12.5 -13q22 -11 33 -7q-1 0 3.5 -4t5 -9.5t5.5 -9t3 -5.5q3 -3 11 -8.5t11 -9.5q4 3 4 6q-1 -5 5 -12.5t11 -6.5q8 2 8 20q-19 -9 -30 11l-1.5 3t-2.5 5.5t-1.5 5t0 4.5t3.5 2q5 0 6 2t-1 7.5t-3 8.5q0 4 -6 11.5t-8 9.5
q-3 -6 -9.5 -5t-9.5 6q0 -1 -1 -4t-1 -4q-8 0 -9 1q0 2 1 10.5t3 13.5q0 3 3 7.5t4.5 8.5t2 8t-2.5 6t-11 1q-11 0 -15 -12q-1 -2 -2 -6.5t-3 -7t-6 -4.5q-4 -1 -14.5 -0.5t-14.5 2.5q-8 5 -13.5 18t-5.5 22q0 7 1.5 17t1.5 15t-3 15q1 1 5 5.5t6 6.5q1 1 2.5 1h3t2.5 1t2 3
q-1 1 -3 2q-1 2 -2 2q4 -2 17 1t17 -1q9 -7 14 1q0 1 -2 6t3 8q3 -16 18 -5q2 -2 9.5 -3t10.5 -3q2 -1 4.5 -3.5l3 -3l3 -3t5.5 4.5q6 -9 7 -15q7 -24 12 -27q4 -2 6.5 -1t2.5 6v8.5t-1 7.5l-1 5v11v5q-9 1 -11.5 6.5t1 11.5t9.5 11q0 1 4.5 2.5t9.5 4t8 4.5q12 12 9 22
q4 0 6 5l-2.5 2t-4.5 3t-3 1q6 3 1 10q3 2 4.5 7t4.5 6q6 -7 13 -1q5 5 1 9q3 5 12.5 7t11.5 6q4 -2 4.5 0.5t0.5 7.5t2 7q2 4 9 6t8 3l10 7q2 2 0 2q11 -1 19 7q6 7 -3 12q1 4 -2.5 6t-8.5 3q1 1 6.5 -2.5t6.5 0.5q9 6 -4 10q-11 3 -26 -7zM580 0q125 22 214 115q-2 2 -8 3
t-8 2q-11 4 -14 5q0 4 -2 8t-4.5 5.5l-7.5 4.5t-7 5q-1 1 -4 3.5t-4.5 3t-4.5 2.5t-5 1.5t-6 -0.5l-2 -1q-2 0 -3.5 -1t-3.5 -2t-2.5 -2t0.5 -1q-13 10 -22 13q-3 1 -7 3.5t-6.5 4t-6 1t-6.5 -4.5q-4 -3 -4.5 -9t-0.5 -8q-5 3 -0.5 10.5t1.5 11.5q-2 4 -6.5 3t-7.5 -3t-7 -5
t-5.5 -4t-5.5 -3.5t-5 -4.5q-2 -2 -3.5 -7t-2.5 -7q-2 2 -7.5 4t-5.5 3q1 -6 2 -21t3 -23q5 -19 -7 -29q-17 -16 -18 -25q-2 -13 8 -16q0 -4 -5 -12t-5 -13q0 -4 2 -10v0z" />
    <glyph glyph-name="listalt" unicode="&#xe631;" 
d="M255 239v-32q0 -6 -5 -11t-11 -5h-32q-7 0 -11.5 5t-4.5 11v32q0 7 4.5 11.5t11.5 4.5h32q6 0 11 -4.5t5 -11.5zM255 368v-32q0 -7 -5 -11.5t-11 -4.5h-32q-7 0 -11.5 4.5t-4.5 11.5v32q0 6 4.5 11t11.5 5h32q6 0 11 -5t5 -11zM255 496v-32q0 -6 -5 -11t-11 -5h-32
q-7 0 -11.5 5t-4.5 11v32q0 7 4.5 12t11.5 5h32q6 0 11 -5t5 -12zM833 239v-32q0 -6 -4.5 -11t-11.5 -5h-482q-6 0 -11 5t-5 11v32q0 7 5 11.5t11 4.5h482q7 0 11.5 -4.5t4.5 -11.5zM833 368v-32q0 -7 -4.5 -11.5t-11.5 -4.5h-482q-6 0 -11 4.5t-5 11.5v32q0 6 5 11t11 5
h482q7 0 11.5 -5t4.5 -11zM833 496v-32q0 -6 -4.5 -11t-11.5 -5h-482q-6 0 -11 5t-5 11v32q0 7 5 12t11 5h482q7 0 11.5 -5t4.5 -12zM898 143v418q0 6 -5 11t-11 5h-740q-6 0 -11 -5t-5 -11v-418q0 -7 5 -11.5t11 -4.5h740q6 0 11 4.5t5 11.5zM962 689v-546
q0 -33 -23.5 -56.5t-56.5 -23.5h-740q-33 0 -56.5 23.5t-23.5 56.5v546q0 34 23.5 57.5t56.5 23.5h740q33 0 56.5 -23.5t23.5 -57.5z" />
    <glyph glyph-name="rocket" unicode="&#xe632;" 
d="M880 681.5q0 24.5 -17 41.5t-41.5 17t-41.5 -17t-17 -41.5t17 -41.5t41.5 -17t41.5 17t17 41.5zM1016 857q0 -152 -46 -262.5t-154 -219.5q-50 -49 -119 -108l-12 -231q-2 -9 -10 -15l-234 -137q-4 -2 -10 -2q-7 0 -14 5l-39 39q-8 9 -5 20l52 168l-171 171l-169 -52h-5
q-9 0 -14 5l-39 39q-10 12 -3 24l136 234q7 9 16 10l231 12q59 69 108 119q114 114 217.5 157t262.5 43q9 0 15 -5.5t6 -13.5z" />
    <glyph glyph-name="signin" unicode="&#xe621;" 
d="M750 384q0 -15 -11 -26l-311 -311q-11 -10 -26 -10t-25.5 10.5t-10.5 25.5v165h-256q-15 0 -26 10.5t-11 25.5v220q0 15 11 25.5t26 10.5h256v165q0 15 10.5 25.5t25.5 10.5t26 -10l311 -311q11 -11 11 -26zM951 585v-402q0 -68 -48.5 -116.5t-116.5 -48.5h-183
q-7 0 -12.5 5.5t-5.5 13.5q0 2 -0.5 11t3 15t1.5 13.5t5.5 11t12.5 3.5h182q38 0 65 27t27 65v402q0 38 -27 65t-65 27h-178h-6l-7 2l-5 3l-4 5l-1 8q0 2 -0.5 11t3 15t2 13.5t5.5 11.5t12 4h183q68 0 116 -48.5t48 -116.5h-6z" />
    <glyph glyph-name="signout" unicode="&#xe636;" 
d="M424 73q0 -2 0.5 -11t2.5 -15t-2 -13.5t-5.5 -11.5t-11.5 -4h-183q-68 0 -116.5 48.5t-48.5 116.5v402q0 68 48.5 116.5t116.5 48.5h183q7 0 12.5 -5.5t5.5 -13.5q0 -2 0.5 -11t3 -15t-1.5 -13.5t-6 -11t-12 -3.5h-182q-38 0 -65 -27t-27 -65v-402q0 -38 27 -65t65 -27
h178h6l7 -2l5 -3l4 -5l1 -8h-5zM954 384q0 -15 -11 -26l-311 -311q-11 -10 -25.5 -10t-25.5 10.5t-11 25.5v165h-256q-15 0 -26 10.5t-11 25.5v220q0 15 11 25.5t26 10.5h256v165q0 15 11 25.5t25.5 10.5t25.5 -10l311 -311q11 -11 11 -26z" />
    <glyph glyph-name="stepbackward" unicode="&#xe65b;" 
d="M779 815q11 11 18.5 7.5t7.5 -17.5v-842q0 -14 -7.5 -17.5t-18.5 7.5l-406 405q-5 5 -7 11v-387q0 -15 -11 -26t-26 -11h-73q-15 0 -26 11t-11 26v804q0 15 11 26t26 11h73q15 0 26 -11t11 -26v-387q2 6 7 11z" />
    <glyph glyph-name="table" unicode="&#xe622;" 
d="M329 110v109q0 8 -5 13.5t-13 5.5h-183q-8 0 -13 -5.5t-5 -13.5v-109q0 -8 5 -13.5t13 -5.5h183q8 0 13 5.5t5 13.5zM329 329v110q0 8 -5 13t-13 5h-183q-8 0 -13 -5t-5 -13v-110q0 -8 5 -13t13 -5h183q8 0 13 5t5 13zM622 110v109q0 8 -5.5 13.5t-13.5 5.5h-182
q-8 0 -13.5 -5.5t-5.5 -13.5v-109q0 -8 5.5 -13.5t13.5 -5.5h182q8 0 13.5 5.5t5.5 13.5zM329 549v109q0 8 -5 13.5t-13 5.5h-183q-8 0 -13 -5.5t-5 -13.5v-109q0 -8 5 -13.5t13 -5.5h183q8 0 13 5.5t5 13.5zM622 329v110q0 8 -5.5 13t-13.5 5h-182q-8 0 -13.5 -5t-5.5 -13
v-110q0 -8 5.5 -13t13.5 -5h182q8 0 13.5 5t5.5 13zM914 110v109q0 8 -5 13.5t-13 5.5h-183q-8 0 -13 -5.5t-5 -13.5v-109q0 -8 5 -13.5t13 -5.5h183q8 0 13 5.5t5 13.5zM622 549v109q0 8 -5.5 13.5t-13.5 5.5h-182q-8 0 -13.5 -5.5t-5.5 -13.5v-109q0 -8 5.5 -13.5
t13.5 -5.5h182q8 0 13.5 5.5t5.5 13.5zM914 329v110q0 8 -5 13t-13 5h-183q-8 0 -13 -5t-5 -13v-110q0 -8 5 -13t13 -5h183q8 0 13 5t5 13zM914 549v109q0 8 -5 13.5t-13 5.5h-183q-8 0 -13 -5.5t-5 -13.5v-109q0 -8 5 -13.5t13 -5.5h183q8 0 13 5.5t5 13.5zM987 731v-621
q0 -38 -26.5 -65t-64.5 -27h-768q-38 0 -64.5 27t-26.5 65v621q0 38 26.5 65t64.5 27h768q38 0 64.5 -27t26.5 -65z" />
    <glyph glyph-name="toggleoff" unicode="&#xe6dc;" horiz-adv-x="1171" 
d="M658 300q0 59 -23 113t-62.5 93.5t-93.5 63t-113.5 23.5t-113.5 -23.5t-93.5 -63t-62.5 -93.5t-23 -113t23 -113t62.5 -93.5t93.5 -63t113.5 -23.5t113.5 23.5t93.5 63t62.5 93.5t23 113zM1097 300q0 59 -23 113t-62.5 93.5t-93.5 63t-113 23.5h-221q68 -52 107.5 -128.5
t39.5 -164.5t-39.5 -164.5t-107.5 -128.5h221q59 0 113 23.5t93.5 63t62.5 93.5t23 113zM1170 300q0 -74 -29 -142t-78 -116.5t-116.5 -78t-141.5 -29.5h-439q-75 0 -142.5 29.5t-116.5 78t-78 116.5t-29 142t29 142t78 116.5t116.5 78t142.5 29.5h439q74 0 141.5 -29.5
t116.5 -78t78 -116.5t29 -142z" />
    <glyph glyph-name="users" unicode="&#xe633;" horiz-adv-x="1098" 
d="M350 384q-87 -3 -142 -69h-72q-44 0 -74 22t-30 64q0 189 66 189q4 0 24 -11.5t52 -23t64 -11.5q36 0 71 12q-3 -19 -3 -35q0 -74 44 -137zM923 43q0 -65 -39 -102t-104 -37h-468q-65 0 -104 37t-39 102q0 28 2 55t7.5 58.5t14 58.5t23 52t33.5 43t46 29t59 11
q6 0 23.5 -11.5t39 -26t57.5 -26t72.5 -11.5t72 11.5t57 26t39.5 26t23 11.5q33 0 60 -11t45.5 -29t33 -43t23 -52t14.5 -58.5t7.5 -58.5t1.5 -55zM375 727q0 -57 -40 -97t-97 -40t-97 40t-40 97t40 97t97 40t97 -40t40 -97zM752 521q0 -85 -60.5 -145.5t-145.5 -60.5
t-145 60.5t-60 145.5t60 145.5t145 60.5t145.5 -60.5t60.5 -145.5zM1061 401q0 -42 -30 -64t-74 -22h-72q-55 66 -142 69q43 63 43 137q0 16 -2 35q35 -12 71 -12q31 0 63.5 11.5t52.5 23t23 11.5q67 0 67 -189zM992 727q0 -57 -40 -97t-97 -40t-97 40t-40 97t40 97t97 40
t97 -40t40 -97z" />
    <glyph glyph-name="user1" unicode="&#xe623;" 
d="M511 -66h-252q-88 0 -131 56q-28 35 -29 87q-3 149 46 246q42 82 128 96q31 6 56 -12q64 -45 119 -59q100 -24 199 29q24 14 52 34q18 13 46 9q99 -14 142 -119q46 -112 34 -245q-4 -46 -37.5 -78.5t-82.5 -40.5q-21 -3 -44 -3h-246zM508 384q94 -1 160.5 65t67.5 160
q0 93 -65 159t-158.5 66.5t-160 -64.5t-66.5 -160q-1 -93 64 -159t158 -67z" />
    <glyph glyph-name="plus" unicode="&#xe634;" 
d="M36 388q1 98 38.5 186.5t102 152t153 101.5t186.5 37q97 0 185.5 -38t152.5 -102t101.5 -152.5t36.5 -185.5q0 -98 -38 -186.5t-102 -152.5t-153 -101.5t-186 -36.5q-97 0 -185.5 38t-152 102t-101.5 152.5t-38 185.5zM594 467v24v131q0 21 -11.5 32.5t-31.5 11.5
q-39 1 -74 0q-19 0 -30.5 -11.5t-11.5 -31.5v-89v-67h-154q-45 0 -45 -45q-1 -35 0 -68q0 -46 47 -46h74h78v-148q0 -27 11.5 -39t38.5 -13h60q25 1 37 13t12 38v129v20h149q27 0 38.5 12t11.5 39q1 24 0 57q0 27 -11.5 39t-38.5 12h-149z" />
    <glyph glyph-name="ai" unicode="&#xe63a;" 
d="M293 84l-23 -93q99 -38 220 -28l-29 121h-168zM377 396q-6 0 -8 -2.5t-4 -9.5l-52 -217h128l-52 217q-3 12 -12 12zM991 519q-48 178 -213 248t-363 17q-226 -61 -329.5 -194t-54.5 -316q41 -156 148 -234l96 367q19 74 101.5 74t101.5 -74l112 -428q19 4 36 9v331
q0 6 4.5 10t10.5 4h67q6 0 10.5 -4t4.5 -10v-299q150 60 224 165q96 138 44 334zM725 403q0 -7 -4.5 -11t-10.5 -4h-71q-6 0 -10.5 4.5t-4.5 10.5v64q0 6 4.5 10t10.5 4h71q6 0 10.5 -4t4.5 -10v-64z" />
    <glyph glyph-name="bi" unicode="&#xe63b;" 
d="M435 317v10q0 39 -28 54.5t-98 15.5q-23 0 -53 -1v-148h92q87 0 87 69zM348 174h-92v-161q9 0 30.5 -0.5t29.5 -0.5q68 0 95 17.5t27 57.5v9q0 34 -21 56t-69 22zM991 518q-48 179 -213 248.5t-363 16.5q-226 -60 -329.5 -193t-54.5 -316q36 -138 124 -215v375
q0 20 7.5 28.5t25.5 10.5q48 8 121 8q224 0 224 -148v-14q0 -38 -17 -67.5t-50 -42.5q71 -31 71 -111v-13q0 -84 -63 -123q70 4 149 25v331q0 6 4 10.5t10 4.5h67q6 0 10.5 -4.5t4.5 -10.5v-300q153 60 228 167q96 137 44 333zM721 402q0 -6 -4.5 -10t-10.5 -4h-70
q-6 0 -10.5 4t-4.5 10v64q0 6 4.5 10.5t10.5 4.5h70q6 0 10.5 -4.5t4.5 -10.5v-64z" />
    <glyph glyph-name="mi" unicode="&#xe63c;" 
d="M524 300q-1 0 -4 -4l-70 -140q-7 -12 -23 -12h-74q-17 0 -24 12l-71 140q-2 4 -3 4q-2 0 -2 -7v-295q119 -52 273 -31v326q0 7 -2 7zM991 519q-48 178 -213 248t-363 17q-226 -61 -329.5 -194t-54.5 -316q36 -137 124 -215v393q0 12 8.5 20.5t20.5 8.5h60q18 0 27 -17
l110 -224q6 -10 8.5 -10t7.5 10l111 224q9 17 27 17h60q12 0 20.5 -8.5t8.5 -20.5v-465q1 1 2 1h2q34 10 64 20v310q0 6 4.5 10.5t10.5 4.5h67q6 0 10.5 -4.5t4.5 -10.5v-268q102 55 158 135q96 138 44 334zM791 402q0 -6 -4.5 -10t-10.5 -4h-71q-6 0 -10.5 4t-4.5 10v65
q0 6 4.5 10t10.5 4h71q6 0 10.5 -4t4.5 -10v-65z" />
    <glyph glyph-name="iconfontcolor58" unicode="&#xe642;" 
d="M1000 -80h-952v952q0 10 -7 17t-17 7t-17 -7t-7 -17v-976q0 -10 7 -17t17 -7h976q10 0 17 7t7 17t-7 17t-17 7zM1024 705q0 27 -18.5 45.5t-45.5 18.5t-45.5 -18.5t-18.5 -45.5q0 -31 26 -51l-102 -301h-1.5h-1.5q-22 0 -40 -14l-124 110q4 11 4 23q0 27 -18.5 45.5
t-45 18.5t-45.5 -18.5t-19 -45.5t19 -45l-79 -214h-1.5h-2.5q-15 0 -30 -7l-36 29q2 8 2 16q0 26 -18.5 45t-45 19t-45.5 -19t-19 -45q0 -17 9 -33l-131 -135q-10 2 -18 2q-26 0 -45 -18.5t-19 -45t19 -45.5t45.5 -19t45 19t18.5 45q0 17 -8 32l132 136q9 -2 16 -2
q18 0 34 9l34 -27q-4 -11 -4 -20q0 -26 19 -45t45.5 -19t45 19t18.5 45q0 25 -16 43l80 216v0v0q14 0 27 6l134 -119l-0.5 -2.5t-0.5 -3.5q0 -26 19 -45t45.5 -19t45 19t18.5 45q0 25 -17 44l104 309q24 3 40 21t16 42z" />
    <glyph glyph-name="percentage16" unicode="&#xe643;" 
d="M970 325.5q-54 62.5 -148 62.5q-64 0 -111 -30q-47 -29 -69 -83.5t-22 -115.5t22 -116q22 -54 69 -84t111 -30q94 0 148 63t54 167t-54 166.5zM884 35q-21 -23 -60 -23t-58 23q-32 36 -32 116q0 81 32 117q19 23 58.5 23t59.5 -23q31 -37 31 -117t-31 -116zM350 776
q-54 63 -148 63q-63 0 -110 -30t-69.5 -84t-22.5 -116q0 -61 22 -115q23 -55 70 -84q47 -30 110 -30q94 0 148 62.5t54 166.5t-54 167zM264 486q-20 -24 -59 -24t-59 24q-31 36 -31 116t31 116q20 24 59 24t59 -23q32 -37 32 -117t-32 -116zM820 835l-490 -905h-120l488 905
h122z" />
    <glyph glyph-name="bangzhuzhongxin" unicode="&#xe666;" 
d="M643 361l-35 -34l-47 47l86 85h41q54 0 86 31q39 39 39 122v18l-100 -47l-34 36l44 101h-18q-82 0 -121 -39q-32 -31 -32 -86v-41l-85 -86l-138 139l36 36l-133 80l-36 -35l80 -134l37 37l138 -139l-277 -281l-2 -2l-23 -78l34 -31l78 19l284 279l47 -47l-34 -34
l232 -232l85 84zM225 684l10 11l93 -57l-47 -47zM250 99l-60 -14l-15 13l17 59l379 385l3 3v50q0 45 25 70q28 28 89 31l-36 -82l56 -58l82 38q-4 -59 -32 -87q-25 -26 -70 -26h-50zM590 277l53 52l200 -200l-53 -52z" />
    <glyph glyph-name="jishuzhichi" unicode="&#xe667;" 
d="M847 526q-27 65 -77.5 115.5t-115.5 77.5q-68 29 -142 29t-142 -29q-65 -27 -115 -77.5t-78 -115.5q-29 -68 -29 -142t29 -142q28 -65 78 -115.5t115 -77.5q68 -29 142 -29t142 29q65 27 115.5 77.5t77.5 115.5q29 68 29 142t-29 142zM753 625q68 -68 91 -161h-168
q-27 55 -84 84v168q93 -23 161 -91zM853 385q0 -29 -5 -57h-163q9 26 9 57q0 28 -9 56h163q5 -27 5 -56zM512 225q-66 0 -112.5 46.5t-46.5 112.5t46.5 112.5t112.5 46.5t112.5 -46.5t46.5 -112.5t-46.5 -112.5t-112.5 -46.5zM339 328h-163q-5 28 -5 56.5t5 56.5h163
q-9 -28 -9 -56q0 -30 9 -57zM569 720v-163q-28 9 -57 9t-57 -9v163q29 5 57 5t57 -5zM271 625q68 68 161 91v-168q-57 -29 -84 -84h-168q23 93 91 161zM271 143q-69 69 -91 162h168q28 -57 84 -85v-168q-93 22 -161 91zM455 48v163q28 -9 57 -9t57 9v-163q-29 -5 -57 -5
q-29 0 -57 5zM753 143q-68 -69 -161 -91v168q56 28 84 85h168q-22 -93 -91 -162z" />
    <glyph glyph-name="ok" unicode="&#xe640;" 
d="M883 519l-404 -404q-15 -15 -35 -15q-19 0 -33 15l-270 269q-13 13 -13 33q0 21 13 35l68 67q14 14 33.5 14t33.5 -14l168 -169l304 303q14 14 33.5 14t33.5 -14l67 -67q14 -13 14 -34q0 -20 -13 -33z" />
    <glyph glyph-name="android" unicode="&#xe66c;" 
d="M256 128q0 -18 12.5 -30.5t30.5 -12.5h42v-149q0 -27 19 -45.5t45.5 -18.5t45 18.5t18.5 45.5v149h86v-149q0 -27 18.5 -45.5t45 -18.5t45.5 18.5t19 45.5v149h42q18 0 30.5 12.5t12.5 30.5v427h-512v-427zM149.5 555q-26.5 0 -45.5 -19t-19 -45v-299q0 -27 19 -45.5
t45.5 -18.5t45 18.5t18.5 45.5v299q0 26 -18.5 45t-45 19zM874.5 555q-26.5 0 -45 -19t-18.5 -45v-299q0 -27 18.5 -45.5t45 -18.5t45.5 18.5t19 45.5v299q0 26 -19 45t-45.5 19zM663 804l55 55q7 7 7 15.5t-6.5 15t-15.5 6.5t-15 -6l-63 -63q-54 26 -113 26q-60 0 -114 -27
l-63 64q-6 6 -15 6t-15 -6t-6 -15t6 -15l56 -56q-49 -36 -77 -90t-28 -117h512q0 63 -28.5 117t-76.5 90zM427 683h-43v42h43v-42zM640 683h-43v42h43v-42z" />
    <glyph glyph-name="question" unicode="&#xe656;" 
d="M721.5 781.5q-87.5 63.5 -220.5 63.5q-100 0 -169 -45q-110 -69 -117 -236h169q0 49 28.5 94t96.5 45q69 0 95 -36.5t26 -81.5q0 -31 -29 -71q-12 -18 -34 -34q-91 -59 -132 -106q-16 -19 -20.5 -46.5t-6.5 -81.5q-1 -13 16 -13h132q15 0 15 14q2 26 8 45q9 30 50 62
l46 32q75 58 91 80q43 60 43 128q0 124 -87.5 187.5zM499 132q-45 1 -76 -27t-32.5 -74.5t28 -76t74.5 -31.5q46 -1 77 26.5t32.5 74.5t-28 77t-75.5 31z" />
    <glyph glyph-name="si" unicode="&#xe653;" 
d="M991 519q-48 178 -213 248t-363 17q-226 -61 -329.5 -194t-54.5 -316q45 -170 169 -249q63 -5 115 -5q47 0 66 16t19 49q0 21 -13 35.5t-50 36.5l-96 58q-49 29 -67.5 58t-18.5 69q0 139 182 139q85 0 141 -13q13 -3 13 -14v-54q0 -5 -3.5 -9t-8.5 -4h-2q-80 7 -144 7
q-77 0 -77 -52q0 -18 12.5 -31.5t47.5 -33.5l88 -43q57 -31 79.5 -66.5t22.5 -82.5q0 -83 -68 -124q54 0 114 10v347q0 6 4 10.5t10 4.5h67q6 0 10.5 -4.5t4.5 -10.5v-324q208 61 299 192q96 136 44 333zM650 402q0 -6 -4 -10t-10 -4h-71q-6 0 -11 4t-5 10v65q0 6 5 10t11 4
h71q6 0 10 -4t4 -10v-65z" />
    <glyph glyph-name="question1" unicode="&#xe663;" 
d="M423 484q0 52 22 74t69 22q41 0 62 -23t21 -52.5t-9 -44.5t-41.5 -48.5t-44.5 -50.5q-14 -19 -15 -52v-49h50q0 33 5.5 52.5t17 33.5t46 47t45 55.5t10.5 49.5q0 61 -41 98q-38 33 -104 36t-110.5 -41t-42.5 -107h60zM488 210h49v-74h-49v74zM512 831q-91 0 -174 -35.5
t-142.5 -95t-95 -142.5t-35.5 -174t35.5 -174t95 -142.5t142.5 -95t174 -35.5t174 35.5t142.5 95t95 142.5t35.5 174t-35.5 174t-95 142.5t-142.5 95t-174 35.5zM512 -14q-108 0 -199.5 53.5t-145 145t-53.5 199.5t53.5 199.5t145 145t199.5 53.5t199.5 -53.5t145 -145
t53.5 -199.5t-53.5 -199.5t-145 -145t-199.5 -53.5z" />
    <glyph glyph-name="datebase" unicode="&#xe65c;" 
d="M104 270v-168q1 -52 55.5 -95.5t148.5 -69t204 -25.5t204 25.5t148.5 69.5t55.5 95v0v168q-57 -59 -165 -93.5t-243 -34.5t-243 34.5t-165 93.5zM104 550v-168q1 -51 55.5 -94.5t148.5 -69t204 -25.5t204 25.5t148.5 69t55.5 94.5v0v168q-57 -59 -165 -93.5t-243 -34.5
t-243 34.5t-165 93.5zM512 473q111 0 205 25.5t148.5 69.5t54.5 96t-54.5 96t-148.5 70t-205 26t-205 -26t-148.5 -70t-54.5 -96t54.5 -96t148.5 -69.5t205 -25.5z" />
    <glyph glyph-name="enduser" unicode="&#xe65d;" 
d="M513 521q74 0 126.5 49.5t52.5 119t-52.5 119t-126.5 49.5t-126.5 -49.5t-52.5 -119t52.5 -119t126.5 -49.5zM653 509q-63 -43 -140 -43t-141 44q-122 -27 -198.5 -91t-76.5 -144v-240q0 -12 9 -20.5t21 -8.5h59q12 0 21 8t9 18v187q0 6 2 8.5t3.5 2.5t6.5 -1t8 -1
q8 0 13.5 -5t5.5 -13v-226l1 59q1 -18 6.5 -48.5t12.5 -31.5q2 -2 7.5 -5.5t25.5 -13t44.5 -16.5t67.5 -12.5t92 -5.5q50 0 92.5 5.5t68 13.5t44 15.5t25.5 13.5l8 5q6 1 11.5 31.5t7.5 48.5v-59v226q0 8 6 13t14 5t13.5 -5t5.5 -13v-178q0 -10 9 -18t21 -8h59
q13 0 21.5 8.5t8.5 20.5v240q0 80 -76.5 144t-197.5 90z" />
    <glyph glyph-name="external" unicode="&#xe65e;" 
d="M749 326q-7 1 -26 1h-17v-50h19q21 0 28 2.5t11 8.5t4 14q0 10 -5.5 16t-13.5 8zM863 401q-20 0 -39 -5q3 15 3 32q0 60 -42.5 103t-102.5 43q-49 0 -88 -30q-31 53 -85 85.5t-118 32.5q-89 0 -155 -60t-76 -148q-63 -10 -105 -59t-42 -114q0 -72 51 -123.5t124 -51.5
h675v0q61 0 104.5 43.5t43.5 104.5t-43 104t-105 43zM351 180h-35v77h-70v-77h-35v177h35v-70h70v70h35v-177zM509 327h-52v-147h-35v147h-53v30h140v-30v0zM654 327h-53v-147h-35v147h-53v30h141v-30zM799 275q-6 -11 -15 -17.5t-18 -8.5q-12 -2 -37 -2h-23v-67h-36v177h58
q32 0 42 -3q15 -4 25 -17q10 -14 10 -35q0 -16 -6 -27z" />
    <glyph glyph-name="memcached" unicode="&#xe65f;" 
d="M511 459q111 0 205 26t148.5 69.5t54.5 95.5t-54.5 96t-148.5 69.5t-205 25.5t-205 -25.5t-148.5 -69.5t-54.5 -96t54.5 -95.5t148.5 -69.5t205 -26zM675 172q1 -43 0.5 -78t-0.5 -58l-1 -23h-81q21 72 21 150q-25 -3 -55 -5q-7 -17 -12.5 -35t-7.5 -27l-3 -10h-50
q-8 33 -22 72q-26 1 -56 5q0 -77 21 -150h-81q0 9 -0.5 23t-1 58t0.5 78q-165 31 -244 113v-167q1 -52 56 -95.5t148.5 -69t203.5 -25.5t203.5 25.5t148.5 69t56 94.5v168q-79 -82 -244 -113zM476 21q-8 0 -13.5 5.5t-5.5 14t5.5 14t14 5.5t14 -5.5t5.5 -14t-6 -14t-14 -5.5
zM549.5 21q-8.5 0 -14 5.5t-5.5 14t5.5 14t14 5.5t14 -5.5t5.5 -14t-5.5 -14t-14 -5.5zM348 210q4 82 14 124h78l71 -93l70 93h78q11 -44 15 -124q109 22 176.5 69t67.5 104v167q-56 -59 -164 -93t-243 -34t-243 34.5t-165 92.5v-167q1 -57 68.5 -104t176.5 -69zM613 200
l-6 53q-17 -22 -33 -57q16 1 39 4zM408 200q17 -2 40 -4q-16 34 -34 57l-0.5 -2.5t-1 -7t-1.5 -10.5t-1.5 -15t-1.5 -18z" />
    <glyph glyph-name="mongodb" unicode="&#xe660;" 
d="M549 17q-15 -13 -15 -33v-25h-30v18q0 14 6 28q9 25 9 47v105h-7h-22v-104q0 -6 -9 -36l-2.5 1l-2.5 1q-62 55 -69 144q-100 11 -179 43t-124 79v-168q1 -51 55.5 -95t148 -69.5t204 -25.5t204 25.5t148.5 69.5t55 95v167q-45 -47 -124 -79t-179 -43q-7 -94 -67 -145z
M512 459q111 0 205 25.5t148.5 69.5t54.5 96t-54.5 96t-148.5 69.5t-205 25.5t-205 -26t-148.5 -70t-54.5 -95.5t54.5 -95.5t148.5 -69.5t205 -25.5zM408 199q8 89 82 172v-178h22h7v194l3 -3q89 -81 95 -185q131 16 216 67t86 116v168q-56 -59 -164 -93.5t-243 -34.5
t-243 34.5t-165 93.5v-168q1 -65 86.5 -116t217.5 -67z" />
    <glyph glyph-name="redis" unicode="&#xe661;" 
d="M575 147q-38 -20 -64.5 -21t-56.5 14q-18 8 -112.5 48.5t-180.5 76.5l-86 36v0v-103q0 -12 35 -29q24 -11 174 -73.5t170 -72.5q30 -15 56.5 -13.5t64.5 21.5q26 13 171 75.5t168 74.5v0q34 18 34 31v101v0l-82 -35.5t-175 -77t-116 -53.5zM575 291q-38 -20 -64.5 -21
t-56.5 14q-18 8 -112.5 48.5t-180.5 76.5l-86 36v0v-103q0 -12 35 -29q24 -11 174 -73.5t170 -71.5q30 -15 56.5 -14t64.5 21q26 13 171 75.5t168 74.5q34 18 34 31v101v0l-81.5 -35.5t-175 -77t-116.5 -53.5zM949 592q0 12 -35 25q-22 8 -165 64.5t-166 64.5
q-35 13 -57 12.5t-62 -15.5q-48 -17 -355 -137q-35 -14 -34 -27v1v-101q339 -143 380 -162q29 -15 55.5 -14t64.5 21q23 12 116.5 54t175.5 78l82 36v100zM836 589l-133 -52l-120 47l133 53zM590 540l-61 -90l-141 59zM484 676l-19 36l61 -24l57 19l-16 -37l59 -22l-76 -8
l-17 -41l-27 46l-87 7zM333.5 625q44.5 0 76.5 -12t32 -29.5t-32 -30t-76.5 -12.5t-76.5 12.5t-32 29.5t32 29.5t76.5 12.5z" />
    <glyph glyph-name="webtransaction" unicode="&#xe662;" 
d="M361 -65v630h570v-630h-570zM318 65h-87v629h571v-87h-484v-542v0zM180 203h-87v630h570v-88h-483v-542z" />
    <glyph glyph-name="plug" unicode="&#xe664;" 
d="M596 743l-102 -103l-176 176l-63 -62l176 -176l-113 -113l-176 176l-62 -63l176 -176l-103 -102l68 -68l443 443zM944 16l-214 214q51 72 43 162t-72 154l-45 46l-352 -352l46 -45q64 -64 154 -72t162 43l214 -214z" />
    <glyph glyph-name="Ci" unicode="&#xe66f;" 
d="M991 518q-48 178 -213 248t-363 17q-226 -61 -329.5 -194t-54.5 -316q42 -158 151 -236q-25 49 -25 119v106q0 51 13 91t33.5 63.5t48 38.5t53.5 20t55 5q69 0 112 -11q16 -5 16 -17v-47q0 -15 -14 -15h-1q-68 5 -112 5q-104 0 -104 -133v-106q0 -133 104 -133
q43 0 112 5h1q14 0 14 -14v-48v-4q33 3 68 9v346q0 6 4.5 10.5t10.5 4.5h67q6 0 10.5 -4.5t4.5 -10.5v-323q203 61 294 190q96 137 44 334zM655 401q0 -6 -4.5 -10t-10.5 -4h-71q-6 0 -10.5 4t-4.5 10v65q0 6 4.5 10t10.5 4h71q6 0 10.5 -4t4.5 -10v-65z" />
    <glyph glyph-name="linux" unicode="&#xe670;" 
d="M916 68q-48 20 -46 61q0 14 -5.5 27.5t-12.5 20.5l-6 6q1 3 2.5 8t4 20.5t3.5 30.5t-1 35t-7 37q-22 62 -139 225q-17 24 -23.5 56.5t-5.5 60.5t-4.5 68t-20.5 75q-17 38 -47 59.5t-63 24.5t-65.5 -4.5t-57.5 -25.5q-16 -10 -26.5 -27.5t-15 -34t-5.5 -41t-0.5 -38.5
t2.5 -38.5t3 -30.5q4 -82 -5 -104q-3 -5 -15.5 -22t-31 -41.5t-29.5 -41.5q-16 -24 -38 -87.5t-31 -77.5q-9 -16 -10.5 -33t1.5 -27l3 -9q-14 -4 -25 -28q-14 -30 -71 -42q-47 -9 -30 -60q3 -9 4 -15.5t-0.5 -15t-3 -13.5t-5.5 -17t-6 -19q-4 -12 2.5 -22t22.5 -15.5
t32.5 -9t39.5 -5.5q27 -4 82 -24t79 -23q14 -2 26 1t19 8t12 11t7 10l2 4q56 13 115 14q26 1 54.5 -2t44.5 -7l16 -3q11 -25 31 -36q13 -10 42.5 -6.5t49.5 23.5q9 10 30 24t35 22t45 25t34 19q20 11 26.5 26t1 27t-19.5 17zM552 754q20 0 34.5 -17.5t14.5 -41.5
q0 -36 -27 -53q-2 1 -6.5 3t-6.5 3q17 8 17 31q0 13 -7.5 23t-18 10t-18 -10t-7.5 -23q0 -11 4 -19q-18 7 -22 8q-5 13 -5 27q0 24 14 41.5t34 17.5zM549 629q29 -10 27 -21q-1 -4 -3 -6t-10 -6.5t-14 -7.5q-59 -36 -70 -37h-6.5t-7 2t-5.5 3t-6.5 4.5t-7.5 4.5
q-13 9 -24.5 21t-7.5 19q20 15 28 23q30 27 44 24q6 -1 18.5 -5.5t26.5 -10t18 -7.5zM428.5 745q15.5 0 27 -16.5t11.5 -39.5q0 -8 -2 -16q-8 -3 -15 -9q-1 -1 -7 -6q5 10 3 24q-2 13 -9.5 21t-16 6.5t-12.5 -11.5t-2 -22.5t9.5 -20.5t15.5 -7l2 1q-9 -9 -16 -14
q-11 6 -18.5 20.5t-7.5 33.5q0 23 11 39.5t26.5 16.5zM388 -41q-5 -22 -31 -39v0q-23 -7 -120 34q-14 6 -62 13.5t-53 13.5q-4 10 -3.5 15.5t5.5 21t6 23.5q2 12 -1.5 29.5t-1.5 25.5q1 7 14.5 11t31 7.5t25.5 8.5q9 6 19.5 27t17.5 25q10 6 26 -8.5t27 -31.5q3 -4 18.5 -30
t30 -49t22.5 -31q35 -38 29 -66zM663 176q-5 -22 -5 -102q-2 -2 -5.5 -6.5t-16 -17t-26 -22t-34 -19t-41.5 -12.5q-74 -11 -112 -3v0l-42 48q2 0 4 0.5t7.5 3t9 6.5t6.5 11t1 16q-2 14 -27 35t-53.5 44t-35.5 39q-12 32 -5.5 74t23.5 69q10 16 28 68.5t30 65.5
q16 19 26.5 51.5t4.5 49.5q5 -6 14 -15t30 -22.5t35 -9.5q13 4 41 20t49.5 27.5t26.5 7.5q10 -9 58.5 -122.5t54.5 -157.5q4 -33 2.5 -58.5t-4.5 -41.5l-4 -15q-1 0 -3.5 0.5t-9 1t-11.5 0t-10 -4t-6 -9.5zM901 29q-5 -5 -55 -31t-64 -40q-20 -21 -40.5 -32.5t-34.5 -7.5
q-16 5 -25 24.5t-3 46.5q16 74 15 105q-1 6 -1.5 15.5t-1 16t-1 13.5t0.5 11.5t3 5.5q2 2 6 2.5t7 0.5l2 -1q1 -2 0 -12t5 -25t18 -21q23 -7 46 -0.5t34 17.5q5 6 10.5 13.5t7.5 12.5l2 4q2 0 4 -1.5t5 -8t2 -15.5q-1 -16 6.5 -33t20.5 -24q1 0 3 -2q6 -3 9.5 -4.5t9 -5
t8 -6t4.5 -6t1.5 -6.5t-4.5 -6z" />
    <glyph glyph-name="yewutuixiao" unicode="&#xe6cd;" 
d="M832 4h-40v600h40q33 0 56.5 -23.5t23.5 -56.5v-440q0 -33 -23.5 -56.5t-56.5 -23.5zM272 604h80v80q0 33 23.5 56.5t56.5 23.5h160q33 0 56.5 -23.5t23.5 -56.5v-80h80v-600h-480v600zM432 604h160v80h-160v-80zM112 84v440q0 33 23.5 56.5t56.5 23.5h40v-600h-40
q-33 0 -56.5 23.5t-23.5 56.5z" />
    <glyph glyph-name="apache" unicode="&#xe676;" 
d="M204.5 583q7.5 4 15.5 1.5t11 -10.5q7 -12 15 -26t40 -61t65.5 -86.5t88 -89t110.5 -83.5q161 -97 360 -185q1 5 1 8.5t-1 8t-3 8t-6 8.5t-8 9t-10.5 11t-13 13t-16 15.5l-18.5 18.5q-13 12 -31.5 33.5t-30.5 36t-41 50.5t-39 47q-58 -20 -137 -20h-1q-8 0 -14 5.5t-6 14
t6 14.5t14 6v0q33 0 70 5q23 4 40 9q-24 28 -41 48q-36 -5 -83 -5q-60 0 -89 4q-9 1 -14 7.5t-4.5 14.5t7 13.5t14.5 4.5h4.5t11.5 -0.5t17 -1t22 -1t24.5 -0.5h27.5t28 1q-37 40 -64 61q-73 59 -166 97.5t-161 35.5l-53 135q-2 7 -8.5 10t-12.5 1q-8 -3 -11 -9.5t0 -13.5
l52 -136q-3 -5 -7.5 -13t-14 -34t-13.5 -53.5t1 -68t21.5 -80t55.5 -87t97 -91.5q71 -54 148.5 -93t142.5 -58t124 -27t99 -5.5t63 11.5q-194 86 -354 183q-59 36 -115.5 86.5t-92 93t-67.5 88.5t-42.5 64.5t-16.5 29.5q-3 8 -0.5 15.5t10 11.5z" />
    <glyph glyph-name="mac" unicode="&#xe677;" 
d="M680 806q-32 -1 -66.5 -19t-57.5 -45q-23 -26 -36.5 -61.5t-8.5 -68.5q34 -3 68 14t57 45q52 63 44 135zM664 603q-34 -1 -84.5 -20.5t-61.5 -19.5q-14 0 -62 18.5t-78 18.5q-53 -1 -99.5 -29.5t-74.5 -76.5q-35 -61 -35 -143.5t25 -154t63 -127.5q17 -24 29 -39
t29.5 -33.5t36.5 -26.5t39 -8q24 1 64 18t74 17q33 0 72 -17t67 -17q21 1 39 9t35 25.5t27.5 31t27.5 38.5q36 53 59 120h-1q-6 3 -14.5 7t-27.5 18.5t-33 32t-25.5 48t-12.5 65.5q0 30 9.5 57.5t20.5 44t28 32t22 19t12 7.5q-23 33 -57 53.5t-56 25t-42 5.5q-10 1 -15 1v0z
" />
    <glyph glyph-name="memcached1" unicode="&#xe678;" 
d="M435 77zM393 76.5q0 17.5 12 30t29.5 12.5t30 -12.5t12.5 -30t-12.5 -29.5t-30 -12t-29.5 12t-12 29.5zM589 77zM547 76.5q0 17.5 12.5 30t30 12.5t29.5 -12.5t12 -30t-12 -29.5t-29.5 -12t-30 12t-12.5 29.5zM841 733h-165q-13 0 -51 -52.5t-73 -104.5t-40 -52
q-3 0 -12 12v0q-8 10 -21 29q-6 9 -25 37t-30 44.5t-26.5 37.5t-27 33t-18.5 15h-0.5h-0.5v0.5t-0.5 0.5h-0.5v0h-1h-0.5h-0.5h-165q-16 -101 -24.5 -210t-9.5 -192.5t0 -152.5t4 -106l3 -37h178q-1 4 -2 6v1v0.5v0.5v0.5v0.5q-15 86 -31 220t-14 209v0v4v0q0 2 1 3v1v3v1v1
v1v1v1v1v2v0.5v1.5l1 1v0.5v1v1v0.5v0.5v1v1v0.5q0 1 1 1v1.5v0.5v1v1.5v0.5q0 1 0.5 1t0.5 1v1v0.5v1v1.5v0q1 0 1 1v1v0v3v0q5 20 15 20q4 -1 11 -12v0q18 -27 53 -111.5t61 -154.5t26 -71q27 3 54 3l55 -3v0q5 15 21.5 59.5t44 114.5t51.5 122t34 53q16 0 19 -57
t-5.5 -141t-18 -156.5t-19.5 -127.5v-0.5v-0.5v-3q-1 -2 -1 -3v-0.5v-0.5q0 -3 -1 -4v-0.5v-0.5v-4v0q-1 -2 -1 -4h177l7 145q7 295 -34 553z" />
    <glyph glyph-name="mongodb1" unicode="&#xe679;" 
d="M497 496q-1 261 -5 337l-5 -5q-14 -11 -29.5 -25.5t-44 -50.5t-50 -76.5t-40 -104.5t-21.5 -134q-3 -55 9.5 -109t31 -92.5t45 -74.5t46 -56t39.5 -37q11 49 19.5 149t5.5 201q0 8 -1 78zM515 62q-4 -21 -9 -31l-4 -9q6 -32 6 -79l25 -8q-5 66 2 98q1 1 1 2.5v1.5
q-14 13 -21 25zM715 502q-17 75 -47 137t-56 93t-49.5 55.5t-26.5 30.5q-1 1 -1 2q4 -81 5 -324v0q1 -71 1 -77q4 -118 -9 -239q1 -37 11.5 -70t20.5 -40q8 7 15 14q1 0 1 1v0v0q15 13 28.5 28.5t31 39t30.5 49t26.5 59t19 69.5t7.5 80.5t-8 91.5z" />
    <glyph glyph-name="mysql" unicode="&#xe67a;" 
d="M216 375l16 18l8 -22q12 -32 31.5 -64t36.5 -53t36 -40.5t26.5 -26t11.5 -9.5q44 -36 102 -70q65 -6 156 -40q44 -16 105 -17q-26 21 -49.5 46.5t-32 37t-12.5 18.5l-8 11l12 8q28 18 111 29q-35 34 -81.5 61t-66.5 34t-35 12h-1l-4 1l-3 4q-31 41 -81 164q-17 40 -42 78
t-51.5 66t-39 40t-23.5 20v1l-1 1q-23 19 -50.5 33.5t-49 21.5t-42.5 11t-29.5 5t-12.5 1l-6 -1l-4 5q-19 20 -51.5 32.5t-56.5 11.5q-13 -1 -15 -4q-3 -4 6 -20q8 -14 26 -36q14 -19 16 -20q13 -21 18 -41v0q4 -30 28 -79t34 -57q22 -17 12 -44q-33 -103 -8 -179
q11 -36 33 -62q11 89 31 114zM862 7q-137 -25 -222 6q-24 9 -39 14t-45.5 13t-55.5 11t-59 3t-66 -5q-49 -9 -102.5 -22.5t-81.5 -22.5l-28 -9q145 33 200 36q47 2 103 -6t101 -27q67 -30 150.5 -33t157.5 27q42 19 74.5 36t43.5 24l12 8q-82 -42 -143 -53z" />
    <glyph glyph-name="ngnix" unicode="&#xe67b;" 
d="M493 414q-30 0 -53 -22.5t-23 -52t23 -52t53 -22.5l182 1l-45 -90h-234l-117 205l117 212h250l58 -120h150l-94 226l-21 42h-46h-340h-45l-20 -38l-158 -287l-21 -37l21 -36l158 -278l21 -38h44h324h46l21 42l118 238l53 108h-120z" />
    <glyph glyph-name="postgresql" unicode="&#xe67c;" 
d="M498 247q5 6 2 15q-3 13 -13 17t-18 -5v0q-8 -9 -13 -15q-12 -16 -23.5 -22.5t-42.5 -12.5q-11 -2 -18 -5q6 -5 17 -7q72 -18 109 35zM406 744q-30 10 -61 16t-77.5 3.5t-76.5 -23.5q-60 -43 -54 -157q1 -22 13 -79t29 -114q47 -155 93 -170q18 -5 38 18q31 38 66 75
q-4 4 -9 8q-42 45 -33 107q6 44 2 102q-1 8 -1 12q0 7 0.5 17.5t4 35.5t10 48.5t20.5 51t34 47.5q0 1 2 2zM481 534q-6 27 -29 32q-22 5 -51 -6t-41 -21q0 -2 1 -8q3 -61 -3 -106q-7 -51 27 -87q27 -28 63 -28q3 13 12 35l2 5q2 7 8 19q7 17 10.5 27.5t7.5 30.5t2 46.5
t-9 60.5zM622 -6q39 9 56 26t24 56q15 87 21 170q-2 49 37 60q-5 7 -7 9q-18 22 -27 43q-1 4 -10 19q-11 21 -18 33.5t-18 38.5t-15 44.5t-3.5 39.5t10.5 35q24 34 93 27q-15 44 -50 85q-72 85 -181 87q-70 1 -113 -42q-51 -52 -60 -156q3 2 7 4q31 16 59 18q65 7 78 -52
q8 -36 10 -65t-2.5 -51.5t-8.5 -34.5t-12 -29q-6 -14 -7 -17l-2 -5q-9 -23 -11 -32q11 3 25 -3q20 -9 27 -33q1 -2 2 -7v-4q-5 -179 10 -215q11 -29 30 -42.5t56 -6.5zM709 776q-36 1 -72 -7q55 -24 96 -71q26 -31 42 -64.5t18 -49.5q0 -3 -1 -6q1 -18 -4 -47q-3 -23 -4 -38
q0 -14 3 -42q6 -24 3.5 -58t-19.5 -62l0.5 -0.5t1.5 -0.5q2 -3 2 -4q70 109 98 224t3 147q-60 77 -167 79zM789 242q38 2 61 13q22 10 35 23h-1q-76 -16 -107 4q-2 1 -3 2q-1 0 -2.5 -0.5t-2.5 -0.5q-8 -3 -11.5 -4.5t-7 -9.5t-2.5 -21q8 -7 41 -6zM692 554q-26 -37 46 -165
q9 -16 11 -22q3 -6 7 -13q15 31 7 94q-4 30 -3 46q0 14 4 41q4 22 4 35q-59 7 -76 -16z" />
    <glyph glyph-name="redis1" unicode="&#xe67d;" 
d="M813 766h-602q-34 0 -57.5 -23.5t-23.5 -57.5v-602q0 -34 23.5 -57.5t57.5 -23.5h602q34 0 57.5 23.5t23.5 57.5v602q0 34 -23.5 57.5t-57.5 23.5zM564 648h216v-216h-216v216zM346.5 102q-50.5 0 -86.5 36t-36 86.5t36 86.5t86.5 36t86.5 -36t36 -86.5t-36 -86.5
t-86.5 -36zM418 505l17 -98l-89 46l-88 -46l17 98l-72 70l99 14l45 90l44 -90l99 -14zM534 106l138 239l138 -239h-276z" />
    <glyph glyph-name="tomcat" unicode="&#xe67e;" 
d="M518 604q2 -57 16 -108q3 -7 9 -20t27.5 -48t46 -64t64 -59.5t80.5 -43.5q67 47 111 117l7 12q5 9 9 17l6 12q41 89 39 192v0q0 21 -5 64.5t-12 58.5q-27 -10 -57.5 -35t-39.5 -51q-91 13 -184 -2q-12 49 -96 89q-11 -19 -16.5 -57.5t-3.5 -73.5h-1zM993 75
q-14 15 -38 23t-49 7q-24 29 -118 128l-20 -13l-18 5q-46 15 -88.5 47.5t-69 63.5t-50.5 68.5t-31 52t-11 25.5l-2 3v1q-86 -27 -170.5 -78.5t-138.5 -107.5l-12 -12q-5 -7 -16 -18q-57 -64 -100.5 -129.5t-43.5 -80.5v-8h110l-2 10q-5 25 3.5 53t27.5 51q32 39 84 51
q15 6 46 6.5t54 -1.5l23 -2q124 -11 251.5 -57.5t286.5 -129.5h105l1 7q3 16 -14 35zM444 139q-21 14 -51 3q-17 19 -25 46h-2h-3q-6 1 -15.5 2t-37 2t-42.5 -1q48 -42 108 -84h81v9q0 14 -13 23zM157 317l8 8q2 2 4 5q-29 47 -35 90q-8 59 27 103q44 54 138 38
q-1 -13 4 -21q10 -16 54.5 -19t77.5 11q-23 32 -62 49.5t-55 10.5q-9 -5 -14 -15q-32 6 -49 5q-69 0 -108 -49t-30 -115q7 -48 40 -101z" />
    <glyph glyph-name="windows1" unicode="&#xe67f;" 
d="M117 668l323 44v-311l-322 -2zM440 365v-312l-323 44v270zM479 718l428 62v-376l-428 -3v317zM907 362v-374l-428 60l-1 314h429z" />
    <glyph glyph-name="dialtest" unicode="&#xe672;" 
d="M512 834q-186 0 -318 -132t-132 -318t132 -318t318 -132t318 132t132 318t-132 318t-318 132zM374 770q-36 -46 -61 -114q-22 -1 -39.5 -14t-23.5 -34h-81q76 116 205 162zM146 568h104q7 -26 30 -39q-10 -60 -11 -125h-166q4 86 43 164zM103 364h166q1 -87 19 -166h-141
q-40 78 -44 166zM171 157h128q28 -97 75 -159q-127 46 -203 159zM492 -25q-18 1 -38 3q-71 45 -112 179h150v-182zM492 198h-161q-19 79 -21 166h182v-166zM492 404h-182q1 60 10 116q21 2 37 15t22 33h113v-164zM492 608h-113q-7 22 -26 35q40 108 101 147q20 2 38 3v-185z
M921 404h-165q-1 86 -18 164h140q39 -77 43 -164zM855 608h-128q-27 99 -76 161q128 -46 204 -161zM532 793q18 0 39 -3q72 -47 113 -182h-152v185zM532 568h163q19 -78 21 -164h-184v164zM532 364h184q-2 -61 -12 -119q-21 -2 -36.5 -15t-21.5 -32h-114v166zM571 -22
q-18 -2 -39 -3v182h114q6 -22 25 -35q-40 -105 -100 -144zM651 -2q35 46 60 112q22 0 39.5 13t24.5 34h78q-75 -113 -202 -159zM877 198h-102q-8 24 -31 38q11 61 12 128h165q-4 -88 -44 -166z" />
    <glyph glyph-name="activemq" unicode="&#xe680;" 
d="M204.5 583q7.5 4 15.5 1.5t12 -10.5q7 -13 14.5 -26.5t39.5 -60.5t65.5 -86.5t88 -89t110.5 -83.5q161 -97 360 -185q1 4 1 8t-1 8.5t-3 8t-6 8.5t-7.5 9t-10.5 11t-13 12.5t-16 15.5t-19 18q-12 13 -31 34.5t-31 36t-41 50t-39 47.5q-58 -21 -137 -21h-1q-8 0 -14 6
t-6 14.5t6 14.5t14 6v0q33 0 71 5q23 4 39 8q-23 29 -41 48q-36 -4 -83 -4q-60 0 -89 4q-9 1 -14 7.5t-4 14.5t7 13.5t15 4.5l4 -0.5t11 -1t17 -1t22 -0.5t25 -0.5t27.5 0t28.5 1.5q-38 40 -65 61q-73 59 -166 97.5t-161 35.5l-53 135q-2 7 -8.5 10t-12.5 0
q-7 -2 -10.5 -8.5t-0.5 -13.5l53 -136q-4 -5 -8.5 -13t-14 -34t-13.5 -53.5t1 -68t21.5 -80t55.5 -87t97 -91.5q72 -54 149.5 -93t142 -58t123.5 -27.5t99 -6t63 12.5q-193 86 -354 183q-59 36 -115.5 86.5t-92 92.5t-67.5 88.5t-42.5 65t-16.5 29.5q-3 7 -0.5 15t10 12z
" />
    <glyph glyph-name="cassandra" unicode="&#xe681;" 
d="M847 335l24 -17q-11 8 -24 17zM948 345q-74 58 -78 73q-4 14 58 -5q-68 31 -69 41q1 3 11 1t22 -7l12 -5q-1 1 -3.5 3t-9.5 6.5t-13.5 8t-15 6.5t-15 3t-13 -4.5t-9.5 -12.5q-37 -69 -109.5 -111t-168.5 -55q-35 -6 -70.5 -6.5t-61 2t-58.5 9t-49.5 11t-47.5 12.5
q-34 9 -70 9t-64.5 -4t-62.5 -1t-63 17q12 -9 22 -14.5t32.5 -10.5t52.5 -5q3 0 17.5 0.5t25.5 0t25 -1t23.5 -2.5t13.5 -5q5 -5 -5.5 -21t-24.5 -30l-14 -14q2 2 4.5 4t10.5 8.5t16 12t18 12.5t18.5 12t16.5 8t13.5 2.5t7.5 -5.5q2 -8 -5 -23.5t-15 -27.5l-8 -12
q33 45 58 55q28 11 44 -12q8 -11 -39 -66l2.5 2.5l5.5 5.5t8.5 8t10.5 9.5t11.5 10t11.5 9t10.5 7.5t8.5 5t5 1q5 -1 5 -15.5t-2 -28.5l-3 -14q24 56 36 60q7 2 -2.5 -30t-23 -66t-13.5 -33q68 124 81 127q10 2 19 -19.5t13 -44.5l4 -23q-10 81 1 86q40 18 43 -41
q1 -42 -12 -98q2 5 5 13t9.5 29.5t10 39t3 35.5t-9.5 26q22 -15 36.5 -34.5t20.5 -38t9 -34.5t2 -26v-10q2 5 3.5 15t-7 49t-33.5 87q14 0 33 -19.5t31 -39.5l13 -21q-4 6 -8.5 15.5t-12.5 29t-7.5 32.5t12.5 14q18 1 33 -11t22 -29.5t12 -35t6 -30.5l1 -12q1 1 2 2.5
t1.5 11t-2 23t-11.5 39.5t-24 60q15 10 44.5 -18t51.5 -59t22 -33l-48 87q-23 45 -17 49t20.5 -6t26.5 -22l11 -13l-22 36q-7 15 -3 17t29.5 -21.5t48.5 -48.5l23 -25l-45 59q-30 43 -22 50q10 8 48 -16q-25 18 -40.5 33t-7.5 19q11 5 35 -2.5t42 -18.5l18 -10l-28 26
q-11 13 -8 18q4 3 26.5 -10.5t43.5 -28.5zM914 515q18 10 36.5 31t27.5 37l9 15q-3 -3 -9 -8.5t-23 -19.5t-32.5 -23.5t-36 -16t-35.5 -3.5q22 18 41 45t26 46l8 18q-8 -11 -19.5 -27.5t-39.5 -45t-46 -30.5q21 18 37.5 43t22.5 40l6 16q-6 -9 -16 -22t-34.5 -36t-43.5 -25
q25 22 39 42t16 30l3 9q-4 -4 -9 -10.5t-20 -22.5t-28 -27.5t-27.5 -19t-22.5 -3.5q16 18 31.5 40.5t22.5 36.5l7 13l-37 -44q-33 -36 -43 -28q-5 3 -0.5 12t11.5 19l8 10q-2 -1 -4.5 -3l-10 -8t-13 -9t-13 -6.5t-9.5 -0.5q9 6 22 23.5t22 32.5l9 14l-2.5 -2.5t-6 -6.5
t-9 -9.5t-11 -11.5t-12 -11.5t-12 -10.5t-11.5 -8.5t-10 -4.5t-7 0l32 63q-2 -3 -4 -7t-10 -14.5t-16 -17.5t-20 -11.5t-24 -1.5q9 11 15.5 22.5t9.5 18.5l2 6q-1 -2 -3.5 -5l-10 -12t-15.5 -13.5t-20 -8.5t-23 2q-3 2 -0.5 8t7.5 13l5 6q-3 -3 -8 -7.5t-17 -10.5t-20 -5
q-8 3 -8 11t5 17l4 9l-29 -41q-8 -8 -10 -8q-3 3 -2 11t3 16l2 9q-3 -4 -7 -10.5t-14 -17t-16 -9.5q-4 1 -5 7t0.5 13.5t3 12.5t1.5 7q-14 -42 -24 -39q-5 2 -8.5 9t-3.5 13l-1 6q-3 -34 -19 -36q-100 -20 -196.5 -71t-207.5 -162q40 22 91 60t100 69t105 50q-7 -23 -7 -47
q0 -72 54.5 -124.5t124.5 -52.5q69 0 121.5 52t58.5 125q2 35 -16 72q54 -11 102 -31.5t75.5 -36t35.5 -15.5q29 -1 56 8t46 23t34 28t22 24l7 10l-3.5 -3.5t-10 -10.5t-15 -13.5t-18.5 -13.5t-20.5 -11t-21.5 -5.5t-21 2.5zM504 388q-26 0 -44 18.5t-18 44t18 44t44 18.5
t44 -18.5t18 -44t-18 -44t-44 -18.5zM474 636v0v0z" />
    <glyph glyph-name="couchbase" unicode="&#xe682;" 
d="M513 768q-104 0 -192.5 -51.5t-140 -140t-51.5 -192.5t51.5 -192.5t140 -140t192.5 -51.5t192.5 51.5t140 140t51.5 192.5t-51.5 192.5t-140 140t-192.5 51.5zM773 317q0 -18 -10.5 -31.5t-29.5 -17.5q-72 -12 -220 -12q-146 0 -220 12q-19 4 -29 17.5t-10 31.5v150
q0 17 11.5 31t27.5 17q27 5 69 4q7 0 12 -5t5 -13v-105q22 0 66 1.5t68 1.5t68 -1.5t66 -1.5v105q0 8 5 13t12 5q44 0 69 -4q16 -3 28 -17t12 -31v-150z" />
    <glyph glyph-name="couchdb" unicode="&#xe683;" 
d="M898 383l-90 22l-161 131l-176 -67l-53 72l80 82h78l31 -25v25h61l-15 35l-178 28l-161 -102v113l-115 -29v-76l29 -39l-84 -28l-31 -34v-91l45 -20v53l19 -15v36h44l83 -124l30 -8l41 -171l22 -8l12 -72h95l-30 246l162 105l88 -74l21 8l8 -23l158 15z" />
    <glyph glyph-name="docker" unicode="&#xe684;" 
d="M531 501h100v-102h51q36 0 70 11q20 7 34 16q-20 26 -24 64q-5 62 25 97l11 12l12 -10q57 -45 63 -101q65 19 117 -11l14 -8l-8 -14q-20 -39 -59 -55.5t-87 -14.5q-63 -158 -195.5 -238.5t-310.5 -80.5q-93 0 -168.5 37t-120.5 113l-1 1l-9 19q-31 67 -23 147l1 16h86
v102h101v100h200v101h121v-201v0z" />
    <glyph glyph-name="elasticsearch" unicode="&#xe685;" 
d="M750 206v49q0 2 -0.5 5.5t-2.5 13.5t-6 17t-13.5 13t-21.5 6h-52v-53h26q2 0 5 -1t8.5 -7t5.5 -17v-52q1 -3 2.5 -8.5t11 -14t26.5 -8.5q-2 0 -4.5 -0.5t-9.5 -3t-12.5 -6t-9.5 -11.5t-4 -18v-43q0 -3 -0.5 -7.5t-6 -12t-16.5 -7.5h-368q-2 0 -5.5 1t-9 8t-5.5 20v289
q0 1 -0.5 4t-2.5 9.5t-6 12t-12.5 9.5t-19.5 4q1 0 4 0.5t10 2.5t12.5 5.5t10 10.5t4.5 16v122q0 2 1 5.5t6.5 10t14.5 6.5h23v51h-55q-2 0 -4.5 -0.5t-9.5 -3t-12 -7.5t-9.5 -16t-4.5 -25v-121q0 -4 -1 -9.5t-9.5 -15t-22.5 -9.5v-47h15q2 0 5 -0.5t8 -6t5 -15.5v-310v-6.5
t2 -12.5t6.5 -15.5t14.5 -12t23 -5.5h422q2 0 5 0.5t10.5 3.5t13 8t10 15.5t4.5 24.5v55q0 3 1 8t9.5 13.5t23.5 8.5v46h-4t-8 2t-10 5t-7.5 10t-3.5 17zM420 345l-86 -149v0l-22 -39q1 -1 0 -3.5t8 -11.5t28 -20t32 -14.5t16 -2.5l3 2l5 8v0l116 202l4 7q31 -9 64 -9
q66 0 121.5 35t83.5 92q26 50 26 106q0 68 -36 124t-95 84q-47 23 -102 23q-95 0 -162 -67t-67 -162q0 -39 12 -74q19 -61 67 -103l-16 -28v0zM424 547.5q0 68.5 48.5 117t117 48.5t117.5 -48.5t49 -117t-49 -117t-117.5 -48.5t-117 48.5t-48.5 117z" />
    <glyph glyph-name="kafka" unicode="&#xe686;" 
d="M672 336q-53 0 -88 -40l-55 39q9 24 9 51q0 26 -9 51l55 38q35 -40 88 -40q48 0 82 34.5t34 83t-34 82.5t-82.5 34t-82.5 -34t-34 -83q0 -16 5 -33l-56 -38q-36 45 -93 54v66q40 9 66.5 41t26.5 74q0 48 -34.5 82.5t-83 34.5t-82.5 -34.5t-34 -82.5q0 -41 25.5 -73
t65.5 -41v-67q-54 -10 -89.5 -51.5t-35.5 -97.5t36 -98t89 -51v-71q-39 -8 -65 -40t-26 -74q0 -48 34 -82.5t82.5 -34.5t83 34.5t34.5 82.5q0 42 -26 74t-66 41v70q56 10 92 54l55 -39q-5 -16 -5 -33q0 -49 34.5 -83t83 -34t82.5 34t34 82.5t-34 83t-82 34.5v0zM672 609
q23 0 39.5 -16.5t16.5 -40t-16.5 -40t-40 -16.5t-40 16.5t-16.5 40t16.5 40t40.5 16.5v0zM330 716q0 23 16.5 40t40 17t40 -17t16.5 -40.5t-16.5 -40t-40 -16.5t-40 16.5t-16.5 40.5v0zM443 52q0 -23 -16.5 -40t-40 -17t-40 17t-16.5 40.5t16.5 40t40 16.5t40 -16.5
t16.5 -40.5v0zM387 307q-33 0 -56 23t-23 56t23 56t55.5 23t56 -23t23.5 -56t-23.5 -56t-55.5 -23v0zM672 162q-24 0 -40.5 16.5t-16.5 40t16.5 40t40 16.5t40 -16.5t16.5 -40t-16.5 -40t-39.5 -16.5v0z" />
    <glyph glyph-name="phpfpm" unicode="&#xe687;" 
d="M682 498h-73l15 75h72l6 39q11 59 38 79q24 20 87 20h95l-14 -73h-48q-25 0 -38 -8q-13 -9 -15 -26l-6 -31h95l-13 -75h-95l-56 -304h-105zM196 573h196q88 0 127 -51q29 -37 29 -94q0 -22 -5 -50q-7 -38 -23 -69q-17 -32 -41 -56q-30 -31 -68 -45q-36 -14 -95 -14h-87
l-25 -137h-102zM283 492l-39 -217h61q62 0 93 26q29 24 41 86q3 21 3 37q0 29 -12 44q-19 24 -78 24h-69z" />
    <glyph glyph-name="rabbitmq" unicode="&#xe688;" 
d="M822 456h-225q-9 0 -14.5 6t-5.5 14v234q0 13 -9.5 22t-22.5 9h-80q-13 0 -22 -9t-9 -22v-232q0 -10 -6.5 -16t-15.5 -6l-74 -1q-9 0 -15.5 6.5t-6.5 15.5l1 233q0 13 -9 22t-22 9h-81q-13 0 -22 -9t-9 -22v-656q0 -11 8.5 -19t19.5 -8h620q12 0 20 8t8 19v374
q0 12 -8.5 20t-19.5 8v0zM716 209q0 -15 -10.5 -25.5t-25.5 -10.5h-64q-15 0 -25.5 10.5t-10.5 25.5v64q0 15 10.5 25.5t25.5 10.5h64q15 0 25.5 -10.5t10.5 -25.5v-64v0z" />
    <glyph glyph-name="onealert" unicode="&#xe675;" 
d="M838 163l-310 538q-14 24 -36.5 36t-47.5 12t-47.5 -12t-35.5 -36l-311 -538q-16 -34 -11 -66t31.5 -55t62.5 -23h622q36 0 62.5 23t32 55t-11.5 66zM481 124q0 -4 -3.5 -7.5t-7.5 -3.5h-51q-5 0 -8 3.5t-3 7.5v50q0 5 3 8.5t8 3.5h51q4 0 7.5 -3.5t3.5 -8.5v-50z
M481 227q0 -4 -3.5 -7.5t-7.5 -3.5h-51q-5 0 -8 3.5t-3 7.5l-10 300q0 4 3 7.5t8 3.5h70q5 0 8 -3.5t3 -7.5zM974 163l-311 538q-13 24 -35.5 36t-47.5 12h-66q22 0 40 -32l311 -538q17 -30 17 -64t-17 -64q-6 -11 -17 -21.5t-18 -10.5h60q37 0 63.5 23t31.5 55t-11 66z" />
    <glyph glyph-name="yanjing1" unicode="&#xe6da;" horiz-adv-x="1025" 
d="M763 391l48 17q43 -7 99 3.5t90 25.5l34 15q-62 -11 -102.5 -3.5t-61.5 13.5t-30.5 21.5t-11 20t-1.5 9.5q-16 -18 -32 -35q-10 -14 -24 -27.5t-29 -23.5t-30.5 -19t-29.5 -15.5t-24.5 -10.5t-17 -6.5l-6.5 -2.5q-57 -15 -122 -17q-65 2 -122 17q-5 2 -12.5 4.5
t-29.5 12.5t-41.5 21t-41.5 29t-36 38l-32 35q0 -4 -1.5 -9t-10.5 -20t-30.5 -22t-61.5 -14t-103 4q3 -1 7.5 -3.5t20 -8.5t30 -10.5t37 -11t42 -9t44 -4.5t42.5 3l48 -17q-1 -3 -3 -8t-12 -18t-24 -24t-42 -22t-64 -15q6 -1 15 -1.5t35.5 0t51 5t55 17t53.5 31.5l32 -17
q1 -2 1.5 -6t-1 -15t-7 -21t-20.5 -23t-38 -22q5 0 12.5 1.5t28 7.5t37 13t32 20t19.5 27h32q2 -8 4 -20.5t-1.5 -40.5t-18.5 -43q6 4 14.5 11t26 30t24.5 46h18q7 -23 23.5 -45t28.5 -32l13 -10q-15 15 -19 41.5t-1 44.5l4 18h32q7 -23 39 -40.5t61 -23.5l29 -5
q-23 9 -38 21.5t-20 23.5t-7 20.5t-1 15.5l1 6l32 17q23 -19 53 -32t56.5 -16.5t49.5 -5t37 -0.5l14 2q-36 4 -64 15t-42.5 22.5t-24 23t-12.5 18.5z" />
    <glyph glyph-name="ct" unicode="&#xe689;" 
d="M991 506q-48 178 -213 248t-363 17q-226 -61 -329.5 -194t-54.5 -316q42 -158 152 -237q-25 49 -25 121v105q0 51 13 91t33 63.5t48 38.5t54 20t54 5q69 0 113 -11q15 -5 15 -17v-47q0 -15 -14 -15h-1q-65 5 -112 5q-103 0 -103 -133v-105q0 -134 103 -134q47 0 112 6h1
q14 0 14 -15v-48v-4q50 5 103 17q-12 25 -12 73v224l-67 10q-14 3 -14 14v33q0 6 4 10t10 4h67v58q0 12 14 15l67 11h3q11 0 11 -11v-73h64q6 0 10.5 -4.5t4.5 -10.5v-42q0 -6 -4.5 -10t-10.5 -4h-64v-225q0 -27 4.5 -33.5t23.5 -6.5h2q164 61 243 173q96 137 44 334z" />
    <glyph glyph-name="zookeeper" unicode="&#xe68a;" 
d="M228 282q14 -1 37.5 -4t88 -13t121 -21.5t120 -30t100.5 -37.5q101 -54 157 -54q38 0 9 33q-13 14 -38 33q-48 36 -117.5 67t-151 51.5t-169.5 15.5t-157 -40zM746 604q-73 30 -162.5 39.5t-156 4t-117.5 -18.5q-38 -10 -82 -27.5t-90.5 -43t-78.5 -59t-35 -68.5
q-7 -74 76 -121q0 1 -1 4.5t-1 4.5l-6 18l16 11q63 41 144 66q98 31 203 31h5l14 12l-76 7l3 21l133 -15l-31 -27q23 -1 50 -5q12 11 32 18q23 8 49 -2.5t39 -35.5q3 -5 5 -9q16 -6 33 -13q15 16 35 16q26 -1 47 -23q21 -24 24 -55q1 0 4 -2.5t4 -3.5q22 -17 40.5 -36
t24.5 -27.5t8 -11.5l6 -9l-3 -11q-2 -5 -4 -9q76 43 92 107q17 68 -53.5 146t-189.5 127zM814 305q-9 -28 -40 -28q-22 -1 -40.5 15t-29 36.5t-4.5 44.5q-10 5 -17 7q-1 -18 -10.5 -31.5t-26.5 -18.5q-27 -7 -54 2.5t-43 28.5q-20 25 -11 54q-31 4 -63 5l-47 -41l84 -9
l-4 -22l-142 15l65 57q-94 -4 -173.5 -30t-136.5 -63q3 -8 6.5 -19.5t9 -34t4.5 -28.5q6 4 38 14l-6 23l44 23q85 43 196 43q116 0 233.5 -42t191.5 -98q3 -3 9 -8q26 26 30 40l-1 1t-2.5 3t-3.5 5t-5 6.5t-7 7.5t-8.5 9.5t-10 10.5t-12 11t-13.5 11zM652 373
q-7 -14 -21 -19.5t-35 2.5q-19 7 -25 23.5t-2 28.5q7 18 26 25q7 3 22.5 0t23.5 -12q22 -24 11 -48zM783 308q-12 -10 -26.5 -4.5t-23.5 18.5q-14 23 -5 47q1 2 3.5 5.5t10.5 8.5t17 3q13 -2 22 -13t11 -22q7 -28 -9 -43z" />
    <glyph glyph-name="dadi" unicode="&#xe68b;" 
d="M44 293q-21 25 -21 34q0 4 1 6t2.5 2t3.5 -3l6 -10.5t14 -21t16 -15.5q47 -31 89 -20q34 9 59 37q4 5 12 17t9 16l-7 -7q-19 -22 -25 -27q-24 -17 -57 -14q-36 4 -68 41q-8 10 -13.5 17t-9.5 14t-6 10q-5 8 -18 8t-19 -10q-8 -16 2 -37q2 -3 10 -14.5t10 -13.5t4.5 -4
t3.5 -4zM201 476q21 -25 21 -34q1 -4 0 -6t-3 -1.5t-3 2.5q-1 0 -7 10.5t-14 21t-16 15.5q-46 31 -88 20q-34 -9 -60 -37q-4 -4 -11.5 -16.5t-9.5 -16.5l8 7q18 22 25 27q24 17 57 14q36 -4 68 -41q8 -9 13.5 -16.5t9.5 -14.5t6 -10q5 -8 18 -8t18 10q8 17 -2 37
q-1 3 -9.5 14.5t-10.5 13.5zM3 365q1 4 2 10.5t6 16.5t13 13q29 12 53 -9q8 -7 21 -24.5t18 -22.5l4 -4l5 -5l5.5 -5.5t6.5 -5.5t7 -5t7.5 -4t8.5 -3t9 -2t10 0q36 4 54 29q8 11 11 29.5t-1 31.5l-7 -26q0 -1 -0.5 -2.5t-3 -5t-6 -6.5t-11.5 -4.5t-19 -1.5q-18 6 -27 12.5
t-18.5 21t-16.5 22.5q-19 21 -31 29t-30 9q-34 3 -55 -23q-9 -10 -14.5 -26t-2.5 -30l2 -10l1 -2q-1 2 -1 3zM313 438q0 11 -1 25h11v-25h42q-1 -11 -1 -27.5t1 -28.5h-11v9h-31v-23q0 -6 1 -20h-12q1 11 1 20v23h-30v-9h-11q1 11 1 28.5t-1 27.5h41zM283 430v-31h30v31h-30
zM323 430v-31h31v31h-31zM399 456h100q-1 -13 -1 -27v-51q0 -14 1 -29h-10v6h-81v-7h-9v30v51v27zM408 449v-87h81v87h-81zM419 436q9 -1 17 -1h28q6 0 15 1v-8h-15h-12v-16h9q7 0 16 1v-9q-8 1 -16 1h-9v-22h13h17v-8q-8 1 -17 1h-32q-8 0 -17 -1v8h17h10v22h-6
q-8 0 -16 -1v9q8 -1 16 -1h6v16h-7h-17v8zM458 396q4 3 8 5q2 -2 9 -10q-4 -2 -8 -5q-3 3 -9 10zM526 429q12 -1 18 -1h27v22q-1 8 -1 12q6 -1 13 -2q-1 -4 -2 -14v-18h28q1 0 8 0.5t12 0.5v-10h-20h-28q1 -11 5 -19q3 -8 10 -15q7 -8 16 -14t19 -10q-6 -5 -9 -12
q-8 5 -14 10q-7 5 -12.5 11t-10.5 14q-5 7 -8 16q-4 -9 -8 -16t-10 -13t-13 -11q-8 -6 -18 -12q-4 6 -8 11q11 4 20 10t16 14q6 8 10 17q4 10 5 19h-27h-18v10zM690 417q-6 1 -17 1v-41q8 2 18 6v-10q-10 -3 -21 -6.5t-18 -7.5q-2 5 -5 12q9 1 18 4v43q-9 0 -16 -1v9h16v16
q0 7 -1 17h10q-1 -8 -1 -17v-16h17v-9zM699 408q-6 -3 -10 -4q-2 5 -3 9l5 1t8 2v12v15h9v-14v-10q4 2 16 5v21q0 7 -1 17h10q-1 -7 -1 -18v-16q5 1 25 9v-18v-18q0 -11 -5 -13q-6 -3 -13 -5q-1 5 -4 11q8 1 10 2t2 7v21q-4 -1 -15 -5v-33q0 -8 1 -15h-10v15v30l-15 -5v-41
q0 -5 2.5 -7.5t6.5 -2.5h28q5 0 6 3t2 11q6 -4 11 -5q-3 -9 -5.5 -13t-8.5 -4h-37q-14 0 -14 11v45zM801 462q6 -3 13 -6q-3 -4 -5.5 -10t-5.5 -12v-61v-24h-10v23v46q-6 -11 -12 -19q-3 5 -7 9q11 12 17.5 26t9.5 28zM823 457h57q-1 -9 -1 -19.5t1 -17.5h-24v-16h15
q12 0 21 1v-10q-10 1 -20 1h-9q5 -11 13 -18t19 -10q-4 -5 -7 -10q-14 7 -21 16t-11 19v-27q0 -10 1 -17h-11q1 7 1 16v31q-12 -25 -31 -41q-3 5 -10 8q19 10 31 33h-8q-10 0 -19 -1v10h17h20v15h-24q1 8 1 19q-1 13 -1 18zM833 448v-20h37v20h-37zM912 452h35q-2 -5 -6 -17
q-3 -11 -7 -22q7 -10 9.5 -17t2.5 -13.5t-5 -10t-12 -4.5q-2 6 -5 10q10 0 11 3.5t0 10t-10 19.5q8 23 10 34h-14v-98h-10q1 11 1 21v63v21zM974 463q6 -3 13 -5l-3 -3q9 -15 18 -22t22 -13q-5 -4 -8 -9q-8 5 -18 14v-8h-11h-13h-13v5q-8 -9 -14 -15q-3 5 -9 8q9 5 19 18
q10 12 17 30zM996 407q6 -3 13 -4q-4 -5 -8 -16q-4 -13 -7 -24h21v-8q-7 1 -15 1h-39q-10 0 -20 -1v8h20h24q6 17 8 26q2 10 3 18zM950 400q5 2 9 3q2 -8 8 -30q-4 0 -9 -2q-1 10 -8 29zM979 449q-6 -12 -16 -24h34q-8 7 -18 24zM970 406q4 0 8 2q3 -11 6 -29q-4 0 -8 -1
q-4 21 -6 28zM319 264q-6 -3 -14 -3q-12 0 -18.5 7t-6.5 19q0 13 7.5 20.5t19.5 7.5q7 0 12 -2v-7q-6 3 -12 3q-9 0 -14.5 -6t-5.5 -15q0 -10 5 -15.5t14 -5.5q7 0 13 4v-7zM354 262h-6v21q0 12 -9 12q-4 0 -6.5 -3.5t-2.5 -8.5v-21h-7v55h7v-24v0q4 7 12 7q12 0 12 -15v-23
v0zM359 312q0 2 1 3t3 1t3 -1t1 -2.5t-1 -3t-2.5 -1.5t-3.5 1q-1 1 -1 3zM360 262v37h6v-37h-6zM404 262h-7v21q0 12 -8 12q-4 0 -7 -3.5t-3 -8.5v-21h-6v37h6v-6v0q4 7 12 7q7 0 10 -4t3 -11v-23zM410 297q6 3 13 3q14 0 14 -14v-24h-7v6v0q-4 -7 -12 -7q-5 0 -8 3t-3 8
q0 10 12 12l11 2q0 9 -8 9q-6 0 -12 -5v7v0zM421 279q-4 0 -6 -2t-2 -5q0 -2 2 -3.5t5 -1.5q4 0 7 3t3 7v4zM493 264q-5 -3 -14 -3q-11 0 -18 7t-7 19q0 13 7.5 20.5t19.5 7.5q7 0 12 -2v-7q-5 3 -12 3q-9 0 -14.5 -6t-5.5 -15q0 -10 5 -15.5t14 -5.5q7 0 13 4v-7zM495 280
q0 9 5 14.5t14 5.5q8 0 13 -5t5 -14t-5.5 -14.5t-13.5 -5.5t-13 5.5t-5 13.5zM501 280q0 -6 3.5 -9.5t9 -3.5t8.5 3.5t3 10t-3 10t-9 3.5q-5 0 -8 -3q-4 -4 -4 -11zM567 262h-7v21q0 12 -8 12q-5 0 -7.5 -3.5t-2.5 -8.5v-21h-7v37h7v-6v0q4 7 12 7q6 0 9.5 -4t3.5 -11v-23z
M590 262q-2 -1 -6 -1q-10 0 -10 11v22h-6v5h6v9l7 2v-11h9v-5h-9v-21q0 -3 1 -4.5t4 -1.5q2 0 4 1v-6zM591 312q0 2 1.5 3t3 1t3 -1t1.5 -2.5t-1.5 -3t-3 -1.5t-2.5 1q-2 1 -2 3zM592 262v37h7v-37h-7zM636 262h-6v21q0 12 -9 12q-4 0 -6.5 -3.5t-2.5 -8.5v-21h-7v37h7v-6v0
q4 7 12 7q6 0 9 -4t3 -11v-23zM672 279h-26q0 -6 3.5 -9.5t8.5 -3.5q6 0 11 4v-5q-5 -4 -12.5 -4t-12.5 5t-5 14t5 14.5t12.5 5.5t11.5 -4.5t4 -13.5v-3zM665 284q0 5 -2 8t-6 3t-7 -3t-4 -8h19v0zM707 262h-7v21q0 12 -8 12q-5 0 -7.5 -3.5t-2.5 -8.5v-21h-7v37h7v-6v0
q4 7 12 7q6 0 9.5 -4t3.5 -11v-23zM730 262q-2 -1 -6 -1q-10 0 -10 11v22h-6v5h6v9l7 2v-11h9v-5h-9v-21q0 -3 1 -4.5t4 -1.5q2 0 4 1v-6zM747 262v55h7v-55h-7zM791 262h-6v21q0 12 -9 12q-4 0 -7 -3.5t-3 -8.5v-21h-6v37h6v-6v0q5 7 13 7q6 0 9 -4t3 -11v-23zM795 270
q5 -4 10 -4q8 0 8 5q0 3 -2 4.5t-7 2.5q-6 3 -7.5 5.5t-1.5 5.5q0 5 4 8t10 3q5 0 9 -2v-6q-4 3 -10 3q-3 0 -5 -1.5t-2 -4t2 -3.5q1 -1 6 -3q6 -2 8.5 -4.5t2.5 -6.5q0 -5 -4.5 -8t-10.5 -3t-10 2v7v0zM854 262h-7v6v0q-4 -7 -12 -7q-13 0 -13 16v22h7v-21q0 -11 8 -11
q5 0 7.5 3t2.5 8v21h7v-37zM880 293q-2 1 -5 1q-4 0 -6.5 -3.5t-2.5 -9.5v-19h-6v37h6v-7v0q3 8 10 8q2 0 4 -1v-6zM881 297q6 3 13 3q14 0 14 -14v-24h-7v6v0q-4 -7 -12 -7q-5 0 -8 3t-3 8q0 10 12 12l11 2q0 9 -8 9q-6 0 -12 -5v7v0zM892 279q-4 0 -6 -2t-2 -5
q0 -2 2 -3.5t5 -1.5q4 0 7 3t3 7v4zM944 262h-6v21q0 12 -9 12q-4 0 -7 -3.5t-3 -8.5v-21h-6v37h6v-6h1q4 7 12 7q6 0 9 -4t3 -11v-23zM975 264q-4 -3 -10 -3q-8 0 -13 5t-5 14t5.5 14.5t14.5 5.5q5 0 8 -2v-6q-3 3 -8 3q-6 0 -9.5 -4t-3.5 -11q0 -6 3.5 -9.5t8.5 -3.5t9 3
v-6zM1009 279h-26q0 -6 3 -9.5t9 -3.5t11 4v-5q-5 -4 -13 -4t-12.5 5t-4.5 14t5 14.5t12.5 5.5t11.5 -4.5t4 -13.5v-3zM1002 284q0 5 -2 8t-7 3q-4 0 -6.5 -3t-3.5 -8h19v0z" />
    <glyph glyph-name="bug" unicode="&#xe6af;" 
d="M969 347.5q0 -14.5 -11 -25.5t-25 -11h-128q0 -98 -39 -166l119 -119q11 -11 11 -26t-11 -26q-10 -11 -25.5 -11t-25.5 11l-113 113q-3 -3 -9 -7.5t-24 -16.5t-37 -21t-47 -16.5t-55 -7.5v512h-74v-512q-29 0 -57.5 8t-49.5 19t-38 22t-25 19l-8 8l-105 -119
q-11 -12 -27 -12q-14 0 -25 10t-12 25t9 27l116 129q-34 65 -34 157h-128q-14 0 -25 11t-11 25.5t11 25.5t25 11h128v168l-98 99q-11 11 -11 25.5t10.5 25.5t25.5 11t26 -11l99 -99h482l99 99q11 11 26 11t25.5 -11t10.5 -25.5t-11 -25.5l-98 -99v-168h128q14 0 25 -11
t11 -25.5zM695 677h-366q0 76 53.5 129t129.5 53t129.5 -53t53.5 -129z" />
    <glyph glyph-name="bianji" unicode="&#xe6b2;" 
d="M796.5 384q-23.5 0 -40.5 -17t-17 -40v-171h-454v455h170q24 0 40.5 16.5t16.5 40t-16.5 40t-40.5 16.5h-227q-24 0 -40.5 -16.5t-16.5 -39.5v-569q0 -23 16.5 -39.5t40.5 -16.5h568q24 0 40.5 16.5t16.5 39.5v228q0 23 -16.5 40t-40 17zM414.5 288.5
q17.5 -17.5 42 -17.5t42.5 17l336 336q17 17 17 42t-17.5 42t-42 17t-41.5 -17l-336 -336q-18 -17 -18 -41.5t17.5 -42z" />
    <glyph glyph-name="mesos" unicode="&#xe68c;" 
d="M703 507l-179 103v-206zM501 404v207l-179 -104zM489 630l-178 104v-207zM916 384l-179 103v-206zM288 527v207l-180 -104zM288 34v207l-180 -104zM714 527v207l-178 -104zM928 157v207l-179 -103zM288 281v206l-180 -103zM276 261l-180 103v-207zM928 404v207l-179 -104
zM916 630l-179 104v-207zM916 137l-179 104v-207zM276 507l-180 104v-207l180 103v0z" />
    <glyph glyph-name="amazonlinux" unicode="&#xe68d;" 
d="M130 129l339 -114v488l-339 114v-488zM555 503v-488l339 114v488zM512 758l-322 -99l322 -98l322 98z" />
    <glyph glyph-name="java" unicode="&#xe68e;" 
d="M391 132l-9 -9q-8 -13 28 -18q3 0 6 -1q54 -6 92.5 -4.5t98.5 12.5q21 -13 51 -24q-108 -46 -227 -28q-74 11 -84 37q-7 17 30 30q6 3 14 5zM369 233l-4 -4t-5.5 -7t-3.5 -9.5t8.5 -9t25.5 -6.5q54 -7 112.5 -5t133.5 17q15 -15 38 -23q-138 -41 -270 -24q-83 11 -85 36
q-1 18 50 35zM555 404q19 -26 16.5 -48t-15.5 -36l-13 -13q3 1 7 3t14.5 9.5t19.5 15.5t18 20.5t13 24.5t2 27.5t-12 30.5q-3 3 -7 9l-13.5 19.5t-11 18.5t-6.5 19t0.5 19t7.5 21t18 22t29 26.5t42 29.5t56 35q-1 1 -31.5 -9.5t-70 -29.5t-71 -50t-33.5 -71t41 -93zM794 57
q26 -22 -29 -38q-83 -25 -267.5 -27.5t-257.5 26.5q-29 12 24 31q13 5 24 7l32 3q-22 16 -88 -7q-59 -20 -60 -41q-1 -16 46 -24q250 -41 458 -4q121 21 135 51q5 13 -17 23zM408 338l-64 -20q-67 -25 4 -35q75 -10 222 3q31 2 66 6.5t54 8.5l20 3q-25 -11 -43 -23
q-121 -32 -292 -23q-128 6 -129 29q0 8 17 16q35 17 71.5 26t54.5 9h19zM709 169q109 57 105 115q-2 34 -36 47q-16 6 -32 3l-20 -5q5 8 15 11q54 19 90 -14q34 -31 14 -74q-27 -58 -140 -87q2 1 4 4zM604 846q4 -4 9.5 -11.5t12 -32t1.5 -51t-33 -67.5t-81 -82
q-35 -28 -53.5 -55t-20.5 -48t6 -44t19.5 -39.5t27 -38.5t21.5 -38q-29 27 -49 47t-38.5 43.5t-26.5 43t-7.5 40t13.5 39.5q12 19 32.5 38.5t41 34.5t43.5 34.5t40 36.5t31 41t16 49t-5 60zM425 -75q62 -5 136 -2t138 11t107.5 28t45.5 48q0 -1 -1.5 -3.5t-10.5 -9
t-22.5 -12.5t-40.5 -14t-62 -15q-101 -19 -224.5 -19.5t-196.5 13.5v0q3 -2 9.5 -5t39.5 -10t82 -10v0z" />
    <glyph glyph-name="solr" unicode="&#xe68f;" 
d="M783 638l-366 -396l460 212q-21 106 -94 184zM511 756q-74 0 -143 -29l-49 -413l245 438q-28 4 -53 4zM880 432l-435 -244l408 49q30 69 30 146q0 23 -3 49zM719 75q75 50 118 129l-383 -76zM587 748l-213 -462l395 365q-77 75 -182 97zM542 12q62 6 117 30l-214 25z
M172 536q-26 -57 -31 -119l57 -103zM336 712q-79 -43 -131 -117l54 -272z" />
    </font>
</defs>
</svg>
